<svg xmlns="http://www.w3.org/2000/svg" xmlns:xlink="http://www.w3.org/1999/xlink" width="375" height="180" viewBox="0 0 375 180">
  <defs>
    <clipPath id="clip-path">
      <rect id="Rectangle_46124" data-name="Rectangle 46124" width="199" height="94" transform="translate(88 107)" fill="#fff" stroke="#707070" stroke-width="1"/>
    </clipPath>
    <clipPath id="clip-art_cardtop">
      <rect width="375" height="180"/>
    </clipPath>
  </defs>
  <g id="art_cardtop" clip-path="url(#clip-art_cardtop)">
    <g id="Mask_Group_6" data-name="Mask Group 6" transform="translate(-0.154 -107)" clip-path="url(#clip-path)">
      <g id="Group_3260" data-name="Group 3260" transform="translate(88 106.997)">
        <rect id="Rectangle_45972" data-name="Rectangle 45972" width="19.125" height="88.818" transform="translate(0 23.354)" fill="#add57f"/>
        <rect id="Rectangle_45973" data-name="Rectangle 45973" width="11.236" height="88.818" transform="translate(19.125 23.354)" fill="#123e6b"/>
        <path id="Path_4673" data-name="Path 4673" d="M228.5,354.1H217.262V265.283Z" transform="translate(-198.137 -241.928)" fill="#123e6b"/>
        <rect id="Rectangle_45974" data-name="Rectangle 45974" width="1.637" height="2.298" transform="translate(2.746 26.824)" fill="#fff"/>
        <rect id="Rectangle_45975" data-name="Rectangle 45975" width="1.637" height="2.298" transform="translate(6.732 26.824)" fill="#fff"/>
        <rect id="Rectangle_45976" data-name="Rectangle 45976" width="1.637" height="2.298" transform="translate(10.717 26.824)" fill="#fff"/>
        <rect id="Rectangle_45977" data-name="Rectangle 45977" width="1.637" height="2.298" transform="translate(14.703 26.824)" fill="#fff"/>
        <rect id="Rectangle_45978" data-name="Rectangle 45978" width="1.637" height="2.298" transform="translate(2.746 33.474)" fill="#fff"/>
        <rect id="Rectangle_45979" data-name="Rectangle 45979" width="1.637" height="2.298" transform="translate(6.732 33.474)" fill="#fff"/>
        <rect id="Rectangle_45980" data-name="Rectangle 45980" width="1.637" height="2.298" transform="translate(10.717 33.474)" fill="#fff"/>
        <rect id="Rectangle_45981" data-name="Rectangle 45981" width="1.637" height="2.298" transform="translate(14.703 33.474)" fill="#fff"/>
        <rect id="Rectangle_45982" data-name="Rectangle 45982" width="1.637" height="2.298" transform="translate(2.746 40.124)" fill="#fff"/>
        <rect id="Rectangle_45983" data-name="Rectangle 45983" width="1.637" height="2.298" transform="translate(6.732 40.124)" fill="#fff"/>
        <rect id="Rectangle_45984" data-name="Rectangle 45984" width="1.637" height="2.298" transform="translate(10.717 40.124)" fill="#fff"/>
        <rect id="Rectangle_45985" data-name="Rectangle 45985" width="1.637" height="2.298" transform="translate(14.703 40.124)" fill="#fff"/>
        <rect id="Rectangle_45986" data-name="Rectangle 45986" width="1.637" height="2.298" transform="translate(2.746 46.774)" fill="#fff"/>
        <rect id="Rectangle_45987" data-name="Rectangle 45987" width="1.637" height="2.298" transform="translate(6.732 46.774)" fill="#fff"/>
        <rect id="Rectangle_45988" data-name="Rectangle 45988" width="1.637" height="2.298" transform="translate(10.717 46.774)" fill="#fff"/>
        <rect id="Rectangle_45989" data-name="Rectangle 45989" width="1.637" height="2.298" transform="translate(14.703 46.774)" fill="#fff"/>
        <rect id="Rectangle_45990" data-name="Rectangle 45990" width="1.637" height="2.298" transform="translate(2.746 53.424)" fill="#fff"/>
        <rect id="Rectangle_45991" data-name="Rectangle 45991" width="1.637" height="2.298" transform="translate(6.732 53.424)" fill="#fff"/>
        <rect id="Rectangle_45992" data-name="Rectangle 45992" width="1.637" height="2.298" transform="translate(10.717 53.424)" fill="#fff"/>
        <rect id="Rectangle_45993" data-name="Rectangle 45993" width="1.637" height="2.298" transform="translate(14.703 53.424)" fill="#fff"/>
        <rect id="Rectangle_45994" data-name="Rectangle 45994" width="1.637" height="2.298" transform="translate(2.746 60.074)" fill="#fff"/>
        <rect id="Rectangle_45995" data-name="Rectangle 45995" width="1.637" height="2.298" transform="translate(6.732 60.074)" fill="#fff"/>
        <rect id="Rectangle_45996" data-name="Rectangle 45996" width="1.637" height="2.298" transform="translate(10.717 60.074)" fill="#fff"/>
        <rect id="Rectangle_45997" data-name="Rectangle 45997" width="1.637" height="2.298" transform="translate(14.703 60.074)" fill="#fff"/>
        <rect id="Rectangle_45998" data-name="Rectangle 45998" width="1.637" height="2.298" transform="translate(2.746 66.724)" fill="#fff"/>
        <rect id="Rectangle_45999" data-name="Rectangle 45999" width="1.637" height="2.298" transform="translate(6.732 66.724)" fill="#fff"/>
        <rect id="Rectangle_46000" data-name="Rectangle 46000" width="1.637" height="2.298" transform="translate(10.717 66.724)" fill="#fff"/>
        <rect id="Rectangle_46001" data-name="Rectangle 46001" width="1.637" height="2.298" transform="translate(14.703 66.724)" fill="#fff"/>
        <rect id="Rectangle_46002" data-name="Rectangle 46002" width="1.637" height="2.298" transform="translate(2.746 73.374)" fill="#fff"/>
        <rect id="Rectangle_46003" data-name="Rectangle 46003" width="1.637" height="2.298" transform="translate(6.732 73.374)" fill="#fff"/>
        <rect id="Rectangle_46004" data-name="Rectangle 46004" width="1.637" height="2.298" transform="translate(10.717 73.374)" fill="#fff"/>
        <rect id="Rectangle_46005" data-name="Rectangle 46005" width="1.637" height="2.298" transform="translate(14.703 73.374)" fill="#fff"/>
        <rect id="Rectangle_46006" data-name="Rectangle 46006" width="1.637" height="2.298" transform="translate(2.746 80.024)" fill="#fff"/>
        <rect id="Rectangle_46007" data-name="Rectangle 46007" width="1.637" height="2.298" transform="translate(6.732 80.024)" fill="#fff"/>
        <rect id="Rectangle_46008" data-name="Rectangle 46008" width="1.637" height="2.298" transform="translate(10.717 80.024)" fill="#fff"/>
        <rect id="Rectangle_46009" data-name="Rectangle 46009" width="1.637" height="2.298" transform="translate(14.703 80.024)" fill="#fff"/>
        <rect id="Rectangle_46010" data-name="Rectangle 46010" width="1.637" height="2.298" transform="translate(2.746 86.674)" fill="#fff"/>
        <rect id="Rectangle_46011" data-name="Rectangle 46011" width="1.637" height="2.298" transform="translate(6.732 86.674)" fill="#fff"/>
        <rect id="Rectangle_46012" data-name="Rectangle 46012" width="1.637" height="2.298" transform="translate(10.717 86.674)" fill="#fff"/>
        <rect id="Rectangle_46013" data-name="Rectangle 46013" width="1.637" height="2.298" transform="translate(14.703 86.674)" fill="#fff"/>
        <rect id="Rectangle_46014" data-name="Rectangle 46014" width="1.637" height="2.298" transform="translate(2.746 93.324)" fill="#fff"/>
        <rect id="Rectangle_46015" data-name="Rectangle 46015" width="1.637" height="2.298" transform="translate(6.732 93.324)" fill="#fff"/>
        <rect id="Rectangle_46016" data-name="Rectangle 46016" width="1.637" height="2.298" transform="translate(10.717 93.324)" fill="#fff"/>
        <rect id="Rectangle_46017" data-name="Rectangle 46017" width="1.637" height="2.298" transform="translate(14.703 93.324)" fill="#fff"/>
        <rect id="Rectangle_46018" data-name="Rectangle 46018" width="1.637" height="2.298" transform="translate(2.746 99.974)" fill="#fff"/>
        <rect id="Rectangle_46019" data-name="Rectangle 46019" width="1.637" height="2.298" transform="translate(6.732 99.974)" fill="#fff"/>
        <rect id="Rectangle_46020" data-name="Rectangle 46020" width="1.637" height="2.298" transform="translate(10.717 99.974)" fill="#fff"/>
        <rect id="Rectangle_46021" data-name="Rectangle 46021" width="1.637" height="2.298" transform="translate(14.703 99.974)" fill="#fff"/>
        <rect id="Rectangle_46022" data-name="Rectangle 46022" width="1.637" height="2.298" transform="translate(2.746 106.624)" fill="#fff"/>
        <rect id="Rectangle_46023" data-name="Rectangle 46023" width="1.637" height="2.298" transform="translate(6.732 106.624)" fill="#fff"/>
        <rect id="Rectangle_46024" data-name="Rectangle 46024" width="1.637" height="2.298" transform="translate(10.717 106.624)" fill="#fff"/>
        <rect id="Rectangle_46025" data-name="Rectangle 46025" width="1.637" height="2.298" transform="translate(14.703 106.624)" fill="#fff"/>
        <rect id="Rectangle_46026" data-name="Rectangle 46026" width="17.103" height="85.307" transform="translate(30.361 8.969)" fill="#add57f"/>
        <path id="Path_4674" data-name="Path 4674" d="M556.31,187.17h-17.1V101.862l17.1,11.1Z" transform="translate(-491.743 -92.893)" fill="#73ddda"/>
        <rect id="Rectangle_46027" data-name="Rectangle 46027" width="1.464" height="80.04" transform="translate(32.817 12.564)" fill="#fff"/>
        <rect id="Rectangle_46028" data-name="Rectangle 46028" width="1.464" height="80.04" transform="translate(36.381 12.564)" fill="#fff"/>
        <rect id="Rectangle_46029" data-name="Rectangle 46029" width="1.464" height="80.04" transform="translate(39.945 12.564)" fill="#fff"/>
        <rect id="Rectangle_46030" data-name="Rectangle 46030" width="1.464" height="80.04" transform="translate(43.509 12.564)" fill="#fff"/>
        <path id="Path_4675" data-name="Path 4675" d="M567.469,222.744h1.464V143.636L567.5,142.7h-.028Z" transform="translate(-517.517 -130.14)" fill="#fff"/>
        <path id="Path_4676" data-name="Path 4676" d="M609.423,246.527V169.733l-1.464-.95v77.744Z" transform="translate(-554.444 -153.923)" fill="#fff"/>
        <path id="Path_4677" data-name="Path 4677" d="M649.914,270.5V196.02l-1.464-.95V270.5Z" transform="translate(-591.37 -177.896)" fill="#fff"/>
        <path id="Path_4678" data-name="Path 4678" d="M690.4,294.474V222.307l-1.464-.95v73.117Z" transform="translate(-628.296 -201.869)" fill="#fff"/>
        <path id="Path_4679" data-name="Path 4679" d="M757.1,332.578H733.506V266.548l23.595-5.243Z" transform="translate(-668.939 -238.301)" fill="#add57f"/>
        <rect id="Rectangle_46031" data-name="Rectangle 46031" width="23.595" height="71.272" transform="translate(88.27 23.004)" fill="#048982"/>
        <rect id="Rectangle_46032" data-name="Rectangle 46032" width="23.595" height="0.905" transform="translate(64.567 28.247)" fill="#fff"/>
        <rect id="Rectangle_46033" data-name="Rectangle 46033" width="23.595" height="0.905" transform="translate(64.567 33.721)" fill="#fff"/>
        <rect id="Rectangle_46034" data-name="Rectangle 46034" width="23.595" height="0.905" transform="translate(64.567 39.195)" fill="#fff"/>
        <rect id="Rectangle_46035" data-name="Rectangle 46035" width="23.595" height="0.905" transform="translate(64.567 44.67)" fill="#fff"/>
        <rect id="Rectangle_46036" data-name="Rectangle 46036" width="23.595" height="0.905" transform="translate(64.567 50.144)" fill="#fff"/>
        <rect id="Rectangle_46037" data-name="Rectangle 46037" width="23.595" height="0.905" transform="translate(64.567 55.618)" fill="#fff"/>
        <rect id="Rectangle_46038" data-name="Rectangle 46038" width="23.595" height="0.905" transform="translate(64.567 61.092)" fill="#fff"/>
        <rect id="Rectangle_46039" data-name="Rectangle 46039" width="23.595" height="0.905" transform="translate(64.567 66.566)" fill="#fff"/>
        <rect id="Rectangle_46040" data-name="Rectangle 46040" width="23.595" height="0.905" transform="translate(64.567 72.04)" fill="#fff"/>
        <rect id="Rectangle_46041" data-name="Rectangle 46041" width="23.595" height="0.905" transform="translate(64.567 77.514)" fill="#fff"/>
        <rect id="Rectangle_46042" data-name="Rectangle 46042" width="23.595" height="0.905" transform="translate(64.567 82.988)" fill="#fff"/>
        <rect id="Rectangle_46043" data-name="Rectangle 46043" width="23.595" height="0.905" transform="translate(64.567 88.462)" fill="#fff"/>
        <rect id="Rectangle_46044" data-name="Rectangle 46044" width="23.595" height="0.905" transform="translate(88.162 28.247)" fill="#add57f"/>
        <rect id="Rectangle_46045" data-name="Rectangle 46045" width="23.595" height="0.905" transform="translate(88.162 33.721)" fill="#add57f"/>
        <rect id="Rectangle_46046" data-name="Rectangle 46046" width="23.595" height="0.905" transform="translate(88.162 39.195)" fill="#add57f"/>
        <rect id="Rectangle_46047" data-name="Rectangle 46047" width="23.595" height="0.905" transform="translate(88.162 44.67)" fill="#add57f"/>
        <rect id="Rectangle_46048" data-name="Rectangle 46048" width="23.595" height="0.905" transform="translate(88.162 50.144)" fill="#add57f"/>
        <rect id="Rectangle_46049" data-name="Rectangle 46049" width="23.595" height="0.905" transform="translate(88.162 55.618)" fill="#add57f"/>
        <rect id="Rectangle_46050" data-name="Rectangle 46050" width="23.595" height="0.905" transform="translate(88.162 61.092)" fill="#add57f"/>
        <rect id="Rectangle_46051" data-name="Rectangle 46051" width="23.595" height="0.905" transform="translate(88.162 66.566)" fill="#add57f"/>
        <rect id="Rectangle_46052" data-name="Rectangle 46052" width="23.595" height="0.905" transform="translate(88.162 72.04)" fill="#add57f"/>
        <rect id="Rectangle_46053" data-name="Rectangle 46053" width="23.595" height="0.905" transform="translate(88.162 77.514)" fill="#add57f"/>
        <rect id="Rectangle_46054" data-name="Rectangle 46054" width="23.595" height="0.905" transform="translate(88.162 82.988)" fill="#add57f"/>
        <rect id="Rectangle_46055" data-name="Rectangle 46055" width="23.595" height="0.905" transform="translate(88.162 88.462)" fill="#add57f"/>
        <rect id="Rectangle_46056" data-name="Rectangle 46056" width="14.425" height="134.872" transform="translate(111.865 0.003)" fill="#123e6b"/>
        <rect id="Rectangle_46057" data-name="Rectangle 46057" width="14.363" height="2.499" transform="translate(111.927 8.504)" fill="#048982"/>
        <rect id="Rectangle_46058" data-name="Rectangle 46058" width="14.363" height="2.499" transform="translate(111.927 17.004)" fill="#048982"/>
        <rect id="Rectangle_46059" data-name="Rectangle 46059" width="14.363" height="2.499" transform="translate(111.927 25.505)" fill="#048982"/>
        <rect id="Rectangle_46060" data-name="Rectangle 46060" width="14.363" height="2.499" transform="translate(111.927 34.005)" fill="#048982"/>
        <rect id="Rectangle_46061" data-name="Rectangle 46061" width="14.363" height="2.499" transform="translate(111.927 42.506)" fill="#048982"/>
        <rect id="Rectangle_46062" data-name="Rectangle 46062" width="14.363" height="2.499" transform="translate(111.927 51.006)" fill="#048982"/>
        <rect id="Rectangle_46063" data-name="Rectangle 46063" width="14.363" height="2.499" transform="translate(111.927 59.507)" fill="#048982"/>
        <rect id="Rectangle_46064" data-name="Rectangle 46064" width="14.363" height="2.499" transform="translate(111.927 68.008)" fill="#048982"/>
        <rect id="Rectangle_46065" data-name="Rectangle 46065" width="14.363" height="2.499" transform="translate(111.927 76.508)" fill="#048982"/>
        <rect id="Rectangle_46066" data-name="Rectangle 46066" width="14.363" height="2.499" transform="translate(111.927 85.009)" fill="#048982"/>
        <rect id="Rectangle_46067" data-name="Rectangle 46067" width="14.363" height="2.499" transform="translate(111.927 93.509)" fill="#048982"/>
        <rect id="Rectangle_46068" data-name="Rectangle 46068" width="14.363" height="2.499" transform="translate(111.927 102.01)" fill="#048982"/>
        <rect id="Rectangle_46069" data-name="Rectangle 46069" width="23.232" height="134.872" transform="translate(126.29 0.003)" fill="#fff"/>
        <rect id="Rectangle_46070" data-name="Rectangle 46070" width="4.437" height="2.499" transform="translate(135.292 8.504)" fill="#73ddda"/>
        <rect id="Rectangle_46071" data-name="Rectangle 46071" width="4.437" height="2.499" transform="translate(129.007 8.504)" fill="#73ddda"/>
        <rect id="Rectangle_46072" data-name="Rectangle 46072" width="4.437" height="2.499" transform="translate(141.577 8.504)" fill="#73ddda"/>
        <rect id="Rectangle_46073" data-name="Rectangle 46073" width="4.437" height="2.499" transform="translate(129.007 17.004)" fill="#73ddda"/>
        <rect id="Rectangle_46074" data-name="Rectangle 46074" width="4.437" height="2.499" transform="translate(141.577 17.004)" fill="#73ddda"/>
        <rect id="Rectangle_46075" data-name="Rectangle 46075" width="4.437" height="2.499" transform="translate(135.292 17.004)" fill="#73ddda"/>
        <rect id="Rectangle_46076" data-name="Rectangle 46076" width="4.437" height="2.499" transform="translate(129.007 25.505)" fill="#73ddda"/>
        <rect id="Rectangle_46077" data-name="Rectangle 46077" width="4.437" height="2.499" transform="translate(141.577 25.505)" fill="#73ddda"/>
        <rect id="Rectangle_46078" data-name="Rectangle 46078" width="4.437" height="2.499" transform="translate(135.292 25.505)" fill="#73ddda"/>
        <rect id="Rectangle_46079" data-name="Rectangle 46079" width="4.437" height="2.499" transform="translate(141.577 34.005)" fill="#73ddda"/>
        <rect id="Rectangle_46080" data-name="Rectangle 46080" width="4.437" height="2.499" transform="translate(129.007 34.005)" fill="#73ddda"/>
        <rect id="Rectangle_46081" data-name="Rectangle 46081" width="4.437" height="2.499" transform="translate(135.292 34.005)" fill="#73ddda"/>
        <rect id="Rectangle_46082" data-name="Rectangle 46082" width="4.437" height="2.499" transform="translate(135.292 42.506)" fill="#73ddda"/>
        <rect id="Rectangle_46083" data-name="Rectangle 46083" width="4.437" height="2.499" transform="translate(129.007 42.506)" fill="#73ddda"/>
        <rect id="Rectangle_46084" data-name="Rectangle 46084" width="4.437" height="2.499" transform="translate(141.577 42.506)" fill="#73ddda"/>
        <rect id="Rectangle_46085" data-name="Rectangle 46085" width="4.437" height="2.499" transform="translate(141.577 51.006)" fill="#73ddda"/>
        <rect id="Rectangle_46086" data-name="Rectangle 46086" width="4.437" height="2.499" transform="translate(129.007 51.006)" fill="#73ddda"/>
        <rect id="Rectangle_46087" data-name="Rectangle 46087" width="4.437" height="2.499" transform="translate(135.292 51.006)" fill="#73ddda"/>
        <rect id="Rectangle_46088" data-name="Rectangle 46088" width="4.437" height="2.499" transform="translate(141.577 59.507)" fill="#73ddda"/>
        <rect id="Rectangle_46089" data-name="Rectangle 46089" width="4.437" height="2.499" transform="translate(135.292 59.507)" fill="#73ddda"/>
        <rect id="Rectangle_46090" data-name="Rectangle 46090" width="4.437" height="2.499" transform="translate(129.007 59.507)" fill="#73ddda"/>
        <rect id="Rectangle_46091" data-name="Rectangle 46091" width="4.437" height="2.499" transform="translate(141.577 68.007)" fill="#73ddda"/>
        <rect id="Rectangle_46092" data-name="Rectangle 46092" width="4.437" height="2.499" transform="translate(129.007 68.008)" fill="#73ddda"/>
        <rect id="Rectangle_46093" data-name="Rectangle 46093" width="4.437" height="2.499" transform="translate(135.292 68.008)" fill="#73ddda"/>
        <rect id="Rectangle_46094" data-name="Rectangle 46094" width="4.437" height="2.499" transform="translate(129.007 76.508)" fill="#73ddda"/>
        <rect id="Rectangle_46095" data-name="Rectangle 46095" width="4.437" height="2.499" transform="translate(135.292 76.508)" fill="#73ddda"/>
        <rect id="Rectangle_46096" data-name="Rectangle 46096" width="4.437" height="2.499" transform="translate(141.577 76.508)" fill="#73ddda"/>
        <rect id="Rectangle_46097" data-name="Rectangle 46097" width="4.437" height="2.499" transform="translate(135.292 85.009)" fill="#73ddda"/>
        <rect id="Rectangle_46098" data-name="Rectangle 46098" width="4.437" height="2.499" transform="translate(141.577 85.009)" fill="#73ddda"/>
        <rect id="Rectangle_46099" data-name="Rectangle 46099" width="4.437" height="2.499" transform="translate(129.007 85.009)" fill="#73ddda"/>
        <rect id="Rectangle_46100" data-name="Rectangle 46100" width="4.437" height="2.499" transform="translate(129.007 93.509)" fill="#73ddda"/>
        <rect id="Rectangle_46101" data-name="Rectangle 46101" width="4.437" height="2.499" transform="translate(135.292 93.509)" fill="#73ddda"/>
        <rect id="Rectangle_46102" data-name="Rectangle 46102" width="4.437" height="2.499" transform="translate(141.577 93.509)" fill="#73ddda"/>
        <rect id="Rectangle_46103" data-name="Rectangle 46103" width="4.437" height="2.499" transform="translate(141.577 102.01)" fill="#73ddda"/>
        <rect id="Rectangle_46104" data-name="Rectangle 46104" width="4.437" height="2.499" transform="translate(129.007 102.01)" fill="#73ddda"/>
        <rect id="Rectangle_46105" data-name="Rectangle 46105" width="4.437" height="2.499" transform="translate(135.292 102.01)" fill="#73ddda"/>
        <path id="Path_4680" data-name="Path 4680" d="M1893.508,276.224v6.115h-1.891V418.27h32.4V282.339h.093v-6.115Z" transform="translate(-1725.107 -251.907)" fill="#123e6b"/>
        <path id="Path_4681" data-name="Path 4681" d="M1922.125,345.688h-30.506V481.619h32.4V345.688Z" transform="translate(-1725.108 -315.256)" fill="#048982"/>
        <rect id="Rectangle_46106" data-name="Rectangle 46106" width="36.634" height="142.045" transform="translate(149.522 24.318)" fill="#1fb578"/>
        <rect id="Rectangle_46107" data-name="Rectangle 46107" width="36.634" height="6.115" transform="translate(149.522 24.318)" fill="#048982"/>
        <rect id="Rectangle_46108" data-name="Rectangle 46108" width="3.367" height="6.314" transform="translate(156.389 39.025)" fill="#73ddda"/>
        <rect id="Rectangle_46109" data-name="Rectangle 46109" width="3.367" height="6.314" transform="translate(162.9 39.025)" fill="#73ddda"/>
        <rect id="Rectangle_46110" data-name="Rectangle 46110" width="3.367" height="6.314" transform="translate(169.411 39.025)" fill="#73ddda"/>
        <rect id="Rectangle_46111" data-name="Rectangle 46111" width="3.368" height="6.314" transform="translate(175.922 39.025)" fill="#73ddda"/>
        <rect id="Rectangle_46112" data-name="Rectangle 46112" width="3.367" height="6.314" transform="translate(156.389 49.928)" fill="#73ddda"/>
        <rect id="Rectangle_46113" data-name="Rectangle 46113" width="3.367" height="6.314" transform="translate(162.9 49.928)" fill="#73ddda"/>
        <rect id="Rectangle_46114" data-name="Rectangle 46114" width="3.367" height="6.314" transform="translate(169.411 49.928)" fill="#73ddda"/>
        <rect id="Rectangle_46115" data-name="Rectangle 46115" width="3.368" height="6.314" transform="translate(175.922 49.928)" fill="#73ddda"/>
        <rect id="Rectangle_46116" data-name="Rectangle 46116" width="3.367" height="6.314" transform="translate(156.389 60.832)" fill="#73ddda"/>
        <rect id="Rectangle_46117" data-name="Rectangle 46117" width="3.367" height="6.314" transform="translate(162.9 60.832)" fill="#73ddda"/>
        <rect id="Rectangle_46118" data-name="Rectangle 46118" width="3.367" height="6.314" transform="translate(169.411 60.832)" fill="#73ddda"/>
        <rect id="Rectangle_46119" data-name="Rectangle 46119" width="3.368" height="6.314" transform="translate(175.922 60.832)" fill="#73ddda"/>
        <rect id="Rectangle_46120" data-name="Rectangle 46120" width="3.367" height="6.314" transform="translate(156.389 71.735)" fill="#73ddda"/>
        <rect id="Rectangle_46121" data-name="Rectangle 46121" width="3.367" height="6.314" transform="translate(162.9 71.735)" fill="#73ddda"/>
        <rect id="Rectangle_46122" data-name="Rectangle 46122" width="3.367" height="6.314" transform="translate(169.411 71.735)" fill="#73ddda"/>
        <rect id="Rectangle_46123" data-name="Rectangle 46123" width="3.368" height="6.314" transform="translate(175.922 71.735)" fill="#73ddda"/>
      </g>
    </g>
    <path id="Path_4457" data-name="Path 4457" d="M349.561,32.168a2.915,2.915,0,0,0,.292-3,11.738,11.738,0,0,1,3.018-13.818,2.931,2.931,0,0,0,.727-3.618,7.84,7.84,0,0,1-.985-3.727A8.005,8.005,0,0,1,360.3,0a7.91,7.91,0,0,1,7.162,11.734,2.929,2.929,0,0,0,.729,3.615,11.738,11.738,0,0,1,3.017,13.821,2.943,2.943,0,0,0,.316,3.025,13.781,13.781,0,0,1,2.811,9.279A13.832,13.832,0,0,1,346.7,40.59a13.763,13.763,0,0,1,2.862-8.423" transform="translate(-323.699 18.782)" fill="#123e6b"/>
    <path id="Path_4458" data-name="Path 4458" d="M69.429,150.857a8.387,8.387,0,0,1-.049-2.017,8.263,8.263,0,1,1,16.432,1.749,17.11,17.11,0,0,0,1.212,8.842,10.291,10.291,0,1,1-18.851.021,15.778,15.778,0,0,0,1.256-8.594" transform="translate(3.366 -94.979)" fill="#048982"/>
    <rect id="Rectangle_1243" data-name="Rectangle 1243" width="1.53" height="48.25" transform="translate(80.734 56.503)" fill="#006168"/>
    <path id="Path_4459" data-name="Path 4459" d="M160.15,81.824a11.051,11.051,0,0,1-.064-2.655,10.876,10.876,0,1,1,21.629,2.3,22.522,22.522,0,0,0,1.6,11.638,13.546,13.546,0,1,1-24.813.027,20.767,20.767,0,0,0,1.653-11.312" transform="translate(-110.793 -36.018)" fill="#add57f"/>
    <rect id="Rectangle_1242" data-name="Rectangle 1242" width="1.53" height="53.429" transform="translate(60.086 51.521)" fill="#006168"/>
    <rect id="Rectangle_1241" data-name="Rectangle 1241" width="1.53" height="45.369" transform="translate(36.614 58.994)" fill="#006168"/>
    <path id="Path_4457-2" data-name="Path 4457" d="M371.5,32.168a2.915,2.915,0,0,1-.292-3,11.738,11.738,0,0,0-3.018-13.818,2.931,2.931,0,0,1-.727-3.618,7.84,7.84,0,0,0,.985-3.727,8.005,8.005,0,0,0-7.687-8A7.91,7.91,0,0,0,353.6,11.738a2.929,2.929,0,0,1-.729,3.615,11.738,11.738,0,0,0-3.017,13.821,2.943,2.943,0,0,1-.316,3.025,13.781,13.781,0,0,0-2.811,9.279,13.832,13.832,0,0,0,27.635-.887,13.763,13.763,0,0,0-2.862-8.423" transform="translate(-28.516 9.993)" fill="#123e6b"/>
    <path id="Path_4458-2" data-name="Path 4458" d="M85.777,150.857a8.387,8.387,0,0,0,.049-2.017,8.263,8.263,0,1,0-16.432,1.749,17.11,17.11,0,0,1-1.212,8.842,10.291,10.291,0,1,0,18.851.021,15.778,15.778,0,0,1-1.256-8.594" transform="translate(210.275 -103.767)" fill="#29b77d"/>
    <rect id="Rectangle_1243-2" data-name="Rectangle 1243" width="1.53" height="34.558" transform="translate(286.583 46.301)" fill="#006168"/>
    <path id="Path_4459-2" data-name="Path 4459" d="M181.669,81.824a11.051,11.051,0,0,0,.064-2.655,10.876,10.876,0,1,0-21.629,2.3,22.522,22.522,0,0,1-1.6,11.638,13.546,13.546,0,1,0,24.813.027,20.767,20.767,0,0,1-1.653-11.312" transform="translate(137.82 -44.807)" fill="#add57f"/>
    <rect id="Rectangle_1242-2" data-name="Rectangle 1242" width="1.53" height="38.268" transform="translate(307.23 42.732)" fill="#006168"/>
    <rect id="Rectangle_1241-2" data-name="Rectangle 1241" width="1.53" height="32.495" transform="translate(330.702 48.085)" fill="#006168"/>
    <path id="Path_4693" data-name="Path 4693" d="M1067.256,1419.458c-18.375,4.572-21.247-1.793-44.147.885-17.659,2.065-22.588,13.1-38.339,10.563-15.833-2.553-36.588-4.112-58.857,4.339l-6.686,97.252,200.241,14.648V1409.172c-27.344-8.91-39.482,7.119-52.212,10.287" transform="translate(-745.016 -1343.302)" fill="#048982"/>
    <path id="Path_4694" data-name="Path 4694" d="M1376.458,1595.6c0,12.807,12.687,23.19,12.687,23.19s12.687-10.383,12.687-23.19-12.687-23.19-12.687-23.19-12.687,10.383-12.687,23.19" transform="translate(-1107.03 -1480.855)" fill="#123e6b"/>
    <rect id="Rectangle_46136" data-name="Rectangle 46136" width="1.532" height="41.704" transform="translate(281.35 111.924)" fill="#006168"/>
    <path id="Path_4695" data-name="Path 4695" d="M1214.2,1595.6c0,12.807,12.687,23.19,12.687,23.19s12.687-10.383,12.687-23.19-12.687-23.19-12.687-23.19S1214.2,1582.8,1214.2,1595.6" transform="translate(-976.531 -1480.855)" fill="#57c5c6"/>
    <rect id="Rectangle_46137" data-name="Rectangle 46137" width="1.532" height="41.704" transform="translate(249.589 111.924)" fill="#006168"/>
    <path id="Path_4696" data-name="Path 4696" d="M1051.942,1595.6c0,12.807,12.687,23.19,12.687,23.19s12.687-10.383,12.687-23.19-12.687-23.19-12.687-23.19-12.687,10.383-12.687,23.19" transform="translate(-846.035 -1480.855)" fill="#add57f"/>
    <rect id="Rectangle_46138" data-name="Rectangle 46138" width="1.532" height="41.704" transform="translate(217.829 111.924)" fill="#006168"/>
    <path id="Path_4697" data-name="Path 4697" d="M1700.973,1595.6c0,12.807,12.687,23.19,12.687,23.19s12.687-10.383,12.687-23.19-12.687-23.19-12.687-23.19-12.687,10.383-12.687,23.19" transform="translate(-1368.024 -1480.855)" fill="#fff"/>
    <rect id="Rectangle_46139" data-name="Rectangle 46139" width="1.532" height="41.704" transform="translate(344.87 111.924)" fill="#006168"/>
    <path id="Path_4698" data-name="Path 4698" d="M1538.715,1595.6c0,12.807,12.687,23.19,12.687,23.19s12.687-10.383,12.687-23.19-12.687-23.19-12.687-23.19-12.687,10.383-12.687,23.19" transform="translate(-1237.526 -1480.855)" fill="#add57f"/>
    <rect id="Rectangle_46140" data-name="Rectangle 46140" width="1.532" height="41.704" transform="translate(313.11 111.924)" fill="#006168"/>
    <path id="Path_4699" data-name="Path 4699" d="M89.318,328.683A20.134,20.134,0,0,0,81.3,330.3c-.61-5.909-7.362-10.568-15.622-10.568-6.619,0-12.269,2.995-14.57,7.224a19.211,19.211,0,0,0-10.432-2.914c-8.113,0-14.787,4.493-15.6,10.253a19.638,19.638,0,0,0-9.4-2.3C7.021,332,0,337.118,0,343.433c0,.084.014.164.017.247L0,343.675v95.173H105V340.117c0-6.315-7.021-11.435-15.682-11.435" transform="translate(76.897 -246.27)" fill="#123e6b"/>
    <path id="Path_4700" data-name="Path 4700" d="M969.824,1419.458c15.453,4.572,17.869-1.793,37.129.885,14.851,2.065,19,13.1,32.243,10.563,13.316-2.553,30.771-4.112,49.5,4.339v65.805l-162.783,46.094V1409.172c23-8.91,33.205,7.119,43.911,10.287" transform="translate(-926.106 -1329.095)" fill="#123e6b"/>
  </g>
</svg>
