<svg xmlns="http://www.w3.org/2000/svg" xmlns:xlink="http://www.w3.org/1999/xlink" width="36" height="36" viewBox="0 0 36 36">
  <defs>
    <clipPath id="clip-path">
      <rect id="Rectangle_46133" data-name="Rectangle 46133" width="30" height="23.263" fill="#5761b2"/>
    </clipPath>
    <clipPath id="clip-card_ic_societymanager">
      <rect width="36" height="36"/>
    </clipPath>
  </defs>
  <g id="card_ic_societymanager" clip-path="url(#clip-card_ic_societymanager)">
    <g id="Group_3277" data-name="Group 3277" transform="translate(-10 -7)">
      <g id="Group_3271" data-name="Group 3271" transform="translate(13 13)">
        <g id="Group_3270" data-name="Group 3270" clip-path="url(#clip-path)">
          <path id="Path_4690" data-name="Path 4690" d="M17.34,0a.8.8,0,0,1,.837.437,1.373,1.373,0,0,1,.085.534q.007,4.473,0,8.946,0,1.154,0,2.308c0,.707-.278.986-.981.986q-6,0-12-.005a1.154,1.154,0,0,0-.894.372c-.984,1.006-1.982,2-2.978,2.991a.76.76,0,0,1-1.217-.015,1.307,1.307,0,0,1-.175-.549,3.238,3.238,0,0,1-.006-.527q0-7.253,0-14.507A.976.976,0,0,1,.247.221.907.907,0,0,1,.938,0c1.847,0,13.669,0,16.4,0m-4.752,4.86a.466.466,0,0,0,.518-.45c.011-.315-.212-.5-.6-.505q-3.363,0-6.727,0a1.911,1.911,0,0,0-.218.02.383.383,0,0,0-.361.331.637.637,0,0,0,.117.456.648.648,0,0,0,.436.144c1.128.011,6.324.01,6.837,0m0,4.441a.48.48,0,0,0,.517-.478c0-.306-.212-.477-.605-.477q-3.363,0-6.725,0a1.154,1.154,0,0,0-.239.025.455.455,0,0,0-.3.681.523.523,0,0,0,.521.252c1.128,0,6.337,0,6.835,0" transform="translate(0 -0.001)" fill="#5761b2"/>
          <path id="Path_4691" data-name="Path 4691" d="M346.126,222.947h.277c.7,0,1.407.008,2.11-.02a1.154,1.154,0,0,0,1.1-1.094c.028-.878.016-1.758.021-2.637,0-.086,0-.173,0-.28h.264c3.4,0,6.8.007,10.2-.008a.721.721,0,0,1,.79.79c-.013,4.008-.007,8.015-.008,12.023a2.033,2.033,0,0,1-.01.263.622.622,0,0,1-.966.44,1.526,1.526,0,0,1-.232-.2c-.771-.773-1.546-1.542-2.308-2.324a.981.981,0,0,0-.758-.316q-4.782.01-9.564,0c-.081,0-.161,0-.242,0a.637.637,0,0,1-.669-.7c0-1.209,0-4.989,0-5.671v-.266m5.455,2.621a.476.476,0,0,0-.521.516c.018.272.229.439.579.439q2.241,0,4.482,0a.843.843,0,0,0,.238-.032.465.465,0,0,0,.248-.71.532.532,0,0,0-.478-.215c-.747,0-4.028,0-4.548,0m4.611-2.638a.476.476,0,0,0,.448-.267.448.448,0,0,0-.035-.479.558.558,0,0,0-.5-.216q-2.23,0-4.461,0a.893.893,0,0,0-.28.046.464.464,0,0,0-.208.721.565.565,0,0,0,.489.2c.747,0,4.153,0,4.548,0" transform="translate(-330.885 -209.27)" fill="#5761b2"/>
        </g>
      </g>
    </g>
  </g>
</svg>
