<svg xmlns="http://www.w3.org/2000/svg" xmlns:xlink="http://www.w3.org/1999/xlink" width="36" height="36" viewBox="0 0 36 36">
  <defs>
    <clipPath id="clip-path">
      <rect id="Rectangle_46127" data-name="Rectangle 46127" width="24" height="21.615" fill="#5761b2"/>
    </clipPath>
    <clipPath id="clip-card_ic_household">
      <rect width="36" height="36"/>
    </clipPath>
  </defs>
  <g id="card_ic_household" clip-path="url(#clip-card_ic_household)">
    <g id="Group_3263" data-name="Group 3263" transform="translate(6 7)" clip-path="url(#clip-path)">
      <path id="Path_4683" data-name="Path 4683" d="M14.427,177.384a2.58,2.58,0,0,0-.569-1.53A2.2,2.2,0,0,0,12.232,175a26.857,26.857,0,0,0-2.845,0,2.343,2.343,0,0,0-2.176,2.2c0,.047-.012.094-.023.18H6.875q-2.746,0-5.492,0A1.23,1.23,0,0,1,0,176.007q0-2.862,0-5.725a4.759,4.759,0,0,1,3.311-4.657A4.244,4.244,0,0,1,4.65,165.4c4.155-.015,8.311-.033,12.465.007a4.7,4.7,0,0,1,4.426,3.982,7.105,7.105,0,0,1,.073.982c.007,1.879,0,3.758,0,5.637a1.23,1.23,0,0,1-1.381,1.376q-2.746,0-5.492,0h-.317m-3.61-9.607a2.4,2.4,0,1,0,2.394,2.409,2.408,2.408,0,0,0-2.394-2.409" transform="translate(0 -155.769)" fill="#5761b2"/>
      <path id="Path_4684" data-name="Path 4684" d="M41.517,3.6A3.6,3.6,0,1,1,45.082,7.2,3.59,3.59,0,0,1,41.517,3.6" transform="translate(-39.104 0)" fill="#5761b2"/>
      <path id="Path_4685" data-name="Path 4685" d="M213.811,3.6a3.6,3.6,0,1,1-3.6-3.6,3.589,3.589,0,0,1,3.6,3.6" transform="translate(-194.605 0)" fill="#5761b2"/>
      <path id="Path_4686" data-name="Path 4686" d="M354.668,86.446a3.049,3.049,0,0,1-3.041-3.071c-.013-.377.134-.542.5-.477a6.728,6.728,0,0,1,1.344.332,2.818,2.818,0,0,1,1.678,2.4c.016.1.023.192.033.289.04.4-.1.547-.513.526" transform="translate(-331.187 -78.066)" fill="#5761b2"/>
    </g>
  </g>
</svg>
