<svg xmlns="http://www.w3.org/2000/svg" xmlns:xlink="http://www.w3.org/1999/xlink" width="36" height="36" viewBox="0 0 36 36">
  <defs>
    <clipPath id="clip-path">
      <rect id="Rectangle_46130" data-name="Rectangle 46130" width="24" height="23.364" fill="#5761b2"/>
    </clipPath>
    <clipPath id="clip-card_ic_reservation">
      <rect width="36" height="36"/>
    </clipPath>
  </defs>
  <g id="card_ic_reservation" clip-path="url(#clip-card_ic_reservation)">
    <g id="Group_3268" data-name="Group 3268" transform="translate(6 6)">
      <g id="Group_3267" data-name="Group 3267" clip-path="url(#clip-path)">
        <path id="Path_4688" data-name="Path 4688" d="M12.2,1.517c.021-.306.021-.59.064-.867A.747.747,0,0,1,13,0,.741.741,0,0,1,13.79.57a7.861,7.861,0,0,1,.1.979c.569,0,1.134,0,1.7,0A3.047,3.047,0,0,1,18.557,3.3a3.4,3.4,0,0,1,.326,1.363c.037,1.716.015,3.433.014,5.149a1.624,1.624,0,0,1-.022.17,7.568,7.568,0,0,0-8.286,8.273c-.139.009-.242.022-.345.022-2.32,0-4.641.011-6.961,0A3,3,0,0,1,.356,16.518a3.723,3.723,0,0,1-.335-1.5C-.008,11.618,0,8.22.009,4.822A3.129,3.129,0,0,1,3.3,1.55c.566-.008,1.132,0,1.711,0,.031-.333.037-.639.094-.936A.75.75,0,0,1,5.9,0a.757.757,0,0,1,.752.671,7.664,7.664,0,0,1,.006.843ZM17.26,6.2c0-.593.027-1.149-.007-1.7a1.326,1.326,0,0,0-1.176-1.276c-.724-.064-1.458-.015-2.224-.015,0,.192,0,.391,0,.589-.011.577-.311.92-.806.926s-.8-.327-.818-.91c-.007-.208,0-.416,0-.632H6.669c0,.285.018.555,0,.822a.763.763,0,0,1-.745.716A.729.729,0,0,1,5.1,4.1c-.055-.3-.057-.6-.082-.9-.716,0-1.415-.046-2.105.013A1.326,1.326,0,0,0,1.671,4.427,16.636,16.636,0,0,0,1.658,6.2Z" transform="translate(0 0)" fill="#5761b2"/>
        <path id="Path_4689" data-name="Path 4689" d="M177.363,174.322a5.909,5.909,0,1,1,5.932-5.913,5.914,5.914,0,0,1-5.932,5.913m.826-6.712c0-.657.012-1.27,0-1.883a.821.821,0,0,0-.8-.867.812.812,0,0,0-.808.859q-.024,1.313,0,2.627a.774.774,0,0,0,.79.867c.744.037,1.492.036,2.235,0a.772.772,0,0,0,.794-.825.8.8,0,0,0-.88-.776c-.425-.009-.85,0-1.327,0" transform="translate(-159.294 -150.957)" fill="#5761b2"/>
      </g>
    </g>
  </g>
</svg>
