<svg xmlns="http://www.w3.org/2000/svg" xmlns:xlink="http://www.w3.org/1999/xlink" width="36" height="36" viewBox="0 0 36 36">
  <defs>
    <clipPath id="clip-path">
      <rect id="Rectangle_46128" data-name="Rectangle 46128" width="18.875" height="24" fill="#5761b2"/>
    </clipPath>
    <clipPath id="clip-card_ic_notice">
      <rect width="36" height="36"/>
    </clipPath>
  </defs>
  <g id="card_ic_notice" clip-path="url(#clip-card_ic_notice)">
    <g id="Group_3265" data-name="Group 3265" transform="translate(9 6)" clip-path="url(#clip-path)">
      <path id="Path_4687" data-name="Path 4687" d="M0,1.162A3.148,3.148,0,0,1,.011.831.84.84,0,0,1,.91.008C1.64,0,10.046.01,13.519,0A1.3,1.3,0,0,1,14.5.414Q16.474,2.4,18.46,4.374a1.3,1.3,0,0,1,.414.984q-.011,8.774-.005,17.547c0,.789-.3,1.1-1.085,1.1H1.074C.307,24,0,23.694,0,22.923,0,19.283,0,4.775,0,1.162M4.324,7.725a.806.806,0,0,0-.807.517.818.818,0,0,0,.165.924.973.973,0,0,0,.785.267q4.97,0,9.94,0a1.625,1.625,0,0,0,.276-.013.819.819,0,0,0,.708-.616.836.836,0,0,0-.85-1.076c-1.7,0-8.51,0-10.217,0M14.538,19.706a.845.845,0,0,0,.844-1.127.934.934,0,0,0-.968-.586c-2.529,0-9.176,0-9.97,0a.921.921,0,0,0-.89.448.843.843,0,0,0,.765,1.264c1.7.007,8.511.006,10.219,0m-.2-3.418a3.1,3.1,0,0,0,.332-.012.835.835,0,0,0,.72-.6.762.762,0,0,0-.321-.92,1.507,1.507,0,0,0-.7-.175c-3.277-.011-6.555-.007-9.832-.007-.1,0-.2,0-.3.009a.831.831,0,0,0-.778.9c.029.5.385.8.972.8,1.671,0,8.281,0,9.915,0M4.294,11.158a.8.8,0,0,0-.81.591.789.789,0,0,0,.308.93,1.46,1.46,0,0,0,.706.166q4.942.015,9.885.006a2.807,2.807,0,0,0,.331-.016.815.815,0,0,0,.68-.6.837.837,0,0,0-.856-1.073c-1.7,0-8.528,0-10.245,0m9.312-9.112V5.26h3.22c-.4-.4-2.81-2.806-3.22-3.214" transform="translate(0 -0.001)" fill="#5761b2"/>
    </g>
  </g>
</svg>
