<svg xmlns="http://www.w3.org/2000/svg" xmlns:xlink="http://www.w3.org/1999/xlink" width="36" height="36" viewBox="0 0 36 36">
  <defs>
    <clipPath id="clip-path">
      <rect id="Rectangle_46135" data-name="Rectangle 46135" width="20" height="20" fill="#5761b2"/>
    </clipPath>
    <clipPath id="clip-card_ic_kidexit">
      <rect width="36" height="36"/>
    </clipPath>
  </defs>
  <g id="card_ic_kidexit" clip-path="url(#clip-card_ic_kidexit)">
    <g id="Group_3273" data-name="Group 3273" transform="translate(8 8)" clip-path="url(#clip-path)">
      <path id="Path_4692" data-name="Path 4692" d="M12.889,9.389a1.257,1.257,0,0,0,.889-2.139A1.257,1.257,0,0,0,12,9.028a1.209,1.209,0,0,0,.889.361m-5.806,0A1.257,1.257,0,0,0,7.972,7.25,1.257,1.257,0,0,0,6.194,9.028a1.209,1.209,0,0,0,.889.361m2.917,6a5.248,5.248,0,0,0,2.806-.806,5.475,5.475,0,0,0,2.028-2.222H5.167a5.475,5.475,0,0,0,2.028,2.222A5.248,5.248,0,0,0,10,15.389M10,20a9.605,9.605,0,0,1-3.875-.792A10.148,10.148,0,0,1,.792,13.875,9.605,9.605,0,0,1,0,10,9.605,9.605,0,0,1,.792,6.125,10.148,10.148,0,0,1,6.125.792,9.605,9.605,0,0,1,10,0a9.605,9.605,0,0,1,3.875.792,10.148,10.148,0,0,1,5.333,5.333A9.605,9.605,0,0,1,20,10a9.605,9.605,0,0,1-.792,3.875,10.148,10.148,0,0,1-5.333,5.333A9.605,9.605,0,0,1,10,20m.417-14.389a2.53,2.53,0,0,0,1.222-.236.744.744,0,0,0,.417-.681.5.5,0,0,0-.181-.4.729.729,0,0,0-.486-.153,2.27,2.27,0,0,0-.417.042,3.091,3.091,0,0,1-.556.042A1.567,1.567,0,0,1,8.806,2.611a4.027,4.027,0,0,1,.042-.569,3.694,3.694,0,0,1,.1-.486q-.389.056-.722.125a5.449,5.449,0,0,0-.722.208,1.151,1.151,0,0,0-.069.347q-.014.208-.014.375a2.942,2.942,0,0,0,3,3" fill="#5761b2"/>
    </g>
  </g>
</svg>
