<svg xmlns="http://www.w3.org/2000/svg" xmlns:xlink="http://www.w3.org/1999/xlink" width="48" height="48" viewBox="0 0 48 48">
  <defs>
    <clipPath id="clip-ic_basket">
      <rect width="48" height="48"/>
    </clipPath>
  </defs>
  <g id="ic_basket" clip-path="url(#clip-ic_basket)">
    <g id="Group_3217" data-name="Group 3217" transform="translate(9 9)">
      <path id="Path_4576" data-name="Path 4576" d="M55.99,178.737a14.468,14.468,0,0,1-8.223-3.791,14.639,14.639,0,0,1-4.73-9.142c.511.091.937.165,1.362.244a13.122,13.122,0,0,0,6.31-.405,13.272,13.272,0,0,0,5.786-3.581c.188-.2.319-.2.509-.013q1.359,1.366,2.735,2.715c.238.233.2.387-.03.6a13.317,13.317,0,0,0-4.1,8.421,12.835,12.835,0,0,0,.307,4.441c.034.139.041.285.072.507" transform="translate(-42.901 -148.935)" fill="#1fc5ab"/>
      <path id="Path_4577" data-name="Path 4577" d="M179.909,45.215a14.881,14.881,0,0,1,13,12.955l-1.3-.24a13.249,13.249,0,0,0-8.391,1.19c-.508.246-.989.551-1.472.847-.2.125-.341.155-.534-.042q-1.509-1.538-3.05-3.045a.348.348,0,0,1-.057-.53,13.186,13.186,0,0,0,2.218-6.171A12.928,12.928,0,0,0,180,45.657c-.033-.132-.055-.268-.091-.442" transform="translate(-163.046 -45.061)" fill="#1fc5ab"/>
      <path id="Path_4578" data-name="Path 4578" d="M54.465,101.027c-.6.534-1.082,1.044-1.64,1.457a11.781,11.781,0,0,1-10.247,2.042c-.857-.209-.815-.063-.742-1.078A16.033,16.033,0,0,1,42.62,99.4,14.585,14.585,0,0,1,45,95.023a.334.334,0,0,1,.494-.091,42.357,42.357,0,0,1,5.86,3.669c.93.692,1.824,1.433,2.736,2.151.1.076.2.145.378.275" transform="translate(-41.801 -89.254)" fill="#1fc5ab"/>
      <path id="Path_4579" data-name="Path 4579" d="M175.974,201.813c.732.919,1.448,1.774,2.118,2.665a42.262,42.262,0,0,1,3.627,5.629c.584,1.1.668.8-.335,1.52a14.127,14.127,0,0,1-6.512,2.578c-.6.079-1.206.125-1.807.2a.4.4,0,0,1-.507-.339,11.8,11.8,0,0,1,.337-7.861,11.353,11.353,0,0,1,2.713-4.062c.1-.094.2-.183.366-.33" transform="translate(-157.733 -184.454)" fill="#1fc5ab"/>
      <path id="Path_4580" data-name="Path 4580" d="M226.369,185.065l-.638-1.127a49.215,49.215,0,0,0-5.336-7.611c-.149-.175-.269-.314.014-.488a11.938,11.938,0,0,1,9.431-1.474c.877.214.831.241.758,1.158a16.371,16.371,0,0,1-.781,3.961,14.664,14.664,0,0,1-3.254,5.417c-.045.048-.1.086-.194.164" transform="translate(-200.633 -159.679)" fill="#1fc5ab"/>
      <path id="Path_4581" data-name="Path 4581" d="M82.771,48.011c.782-.6,1.478-1.184,2.226-1.693a15.06,15.06,0,0,1,6.473-2.387c.5-.071,1.019-.074,1.529-.116a.359.359,0,0,1,.421.3,11.918,11.918,0,0,1-1.286,9.827c-.133.215-.237.358-.5.131A49.262,49.262,0,0,0,83.064,48.2c-.059-.032-.113-.074-.293-.193" transform="translate(-78.27 -43.812)" fill="#1fc5ab"/>
    </g>
  </g>
</svg>
