<svg xmlns="http://www.w3.org/2000/svg" xmlns:xlink="http://www.w3.org/1999/xlink" width="24" height="24" viewBox="0 0 24 24">
  <defs>
    <clipPath id="clip-ic_call_chat">
      <rect width="24" height="24"/>
    </clipPath>
  </defs>
  <g id="ic_call_chat" clip-path="url(#clip-ic_call_chat)">
    <path id="ic_call_24px" d="M5.816,9.059a11.782,11.782,0,0,0,5.126,5.126l1.711-1.711a.773.773,0,0,1,.793-.187,8.872,8.872,0,0,0,2.777.443.78.78,0,0,1,.778.778v2.714a.78.78,0,0,1-.778.778A13.221,13.221,0,0,1,3,3.778.78.78,0,0,1,3.778,3H6.5a.78.78,0,0,1,.778.778,8.836,8.836,0,0,0,.443,2.777.781.781,0,0,1-.194.793Z" transform="translate(2 2)" fill="#5761b2"/>
  </g>
</svg>
