<svg xmlns="http://www.w3.org/2000/svg" xmlns:xlink="http://www.w3.org/1999/xlink" width="48" height="48" viewBox="0 0 48 48">
  <defs>
    <clipPath id="clip-path">
      <rect id="Rectangle_1845" data-name="Rectangle 1845" width="48" height="48" fill="#1fc5ab"/>
    </clipPath>
    <clipPath id="clip-ic_golf">
      <rect width="48" height="48"/>
    </clipPath>
  </defs>
  <g id="ic_golf" clip-path="url(#clip-ic_golf)">
    <g id="Group_3226" data-name="Group 3226" clip-path="url(#clip-path)">
      <path id="Path_4633" data-name="Path 4633" d="M76.464,89.309l.605-.073c-4.41-3.048-6.551-7.164-6.031-12.472a12.14,12.14,0,0,1,4.7-8.533,12.8,12.8,0,0,1,17.946,1.755,12.42,12.42,0,0,1,2.827,10.3,12.812,12.812,0,0,1-5.948,8.923l.606.11c0,.349,0,.7,0,1.051,0,.713-.016,1.426.006,2.138.011.361-.123.46-.471.46a10.686,10.686,0,0,0-2.172.088,3.594,3.594,0,0,0-2.873,3.44c-.033.54,0,1.083-.015,1.625-.005.256.1.369.355.353.128-.008.257,0,.385,0h15.142c.68,0,.681,0,.681.7,0,.855-.008,1.711,0,2.566,0,.287-.08.435-.388.4a2.765,2.765,0,0,0-.3,0H66.107c-.68,0-.68,0-.68-.7q0-1.176,0-2.353c0-.612,0-.613.6-.613H79.968c.556,0,1.113.015,1.668-.013.12-.006.337-.172.333-.256a14.177,14.177,0,0,0-.209-2.71,3.441,3.441,0,0,0-3.208-2.518c-.569-.028-1.14-.016-1.711-.015-.2,0-.378-.018-.374-.284,0-.114,0-.228,0-.342,0-1,0-1.993,0-3.028M93.022,78.23a9.206,9.206,0,1,0-9.2,9.206,9.235,9.235,0,0,0,9.2-9.206" transform="translate(-59.819 -59.751)" fill="#1fc5ab"/>
      <path id="Path_4634" data-name="Path 4634" d="M302.368,237.162a.921.921,0,0,1,.911.929.916.916,0,1,1-.911-.929" transform="translate(-275.608 -216.834)" fill="#1fc5ab"/>
      <path id="Path_4635" data-name="Path 4635" d="M281.846,259.7a.9.9,0,0,1-.909.916.925.925,0,0,1-.9-.933.892.892,0,0,1,.9-.882.866.866,0,0,1,.914.9" transform="translate(-256.03 -236.619)" fill="#1fc5ab"/>
      <path id="Path_4636" data-name="Path 4636" d="M259.666,281.9a.867.867,0,0,1-.918-.895.893.893,0,0,1,.9-.919.927.927,0,0,1,.909.885.9.9,0,0,1-.9.929" transform="translate(-236.57 -256.08)" fill="#1fc5ab"/>
      <path id="Path_4637" data-name="Path 4637" d="M302.362,281.9a.906.906,0,0,1-.9-.926.916.916,0,0,1,1.831.026.9.9,0,0,1-.927.9" transform="translate(-275.619 -256.077)" fill="#1fc5ab"/>
      <path id="Path_4638" data-name="Path 4638" d="M346.255,238.07a.917.917,0,0,1-.918.929.93.93,0,0,1-.9-.908.909.909,0,1,1,1.817-.02" transform="translate(-314.914 -216.837)" fill="#1fc5ab"/>
      <path id="Path_4639" data-name="Path 4639" d="M323.983,217.539a.883.883,0,0,1-.9-.928.9.9,0,0,1,.906-.889.92.92,0,0,1,.911.935.9.9,0,0,1-.914.882" transform="translate(-295.388 -197.232)" fill="#1fc5ab"/>
      <path id="Path_4640" data-name="Path 4640" d="M323.084,259.687a.872.872,0,0,1,.891-.893.893.893,0,0,1,.926.909.924.924,0,0,1-.9.906.9.9,0,0,1-.917-.922" transform="translate(-295.391 -236.611)" fill="#1fc5ab"/>
    </g>
  </g>
</svg>
