<svg xmlns="http://www.w3.org/2000/svg" xmlns:xlink="http://www.w3.org/1999/xlink" width="48" height="48" viewBox="0 0 48 48">
  <defs>
    <clipPath id="clip-path">
      <rect id="Rectangle_1843" data-name="Rectangle 1843" width="42" height="27.048" fill="#1fc5ab"/>
    </clipPath>
    <clipPath id="clip-ic_gym">
      <rect width="48" height="48"/>
    </clipPath>
  </defs>
  <g id="ic_gym" clip-path="url(#clip-ic_gym)">
    <g id="Group_3291" data-name="Group 3291" transform="translate(3 10)">
      <g id="Group_3220" data-name="Group 3220" clip-path="url(#clip-path)">
        <path id="Path_4627" data-name="Path 4627" d="M8.069,37.866.935,33.748a1.211,1.211,0,0,1-.5-1.86c.166-.29.329-.587.5-.867a1.331,1.331,0,0,1,.22-.284,1.2,1.2,0,0,1,1.489-.143l1.9,1.1c1.149.663,2.3,1.323,3.447,1.995.208.122.316.128.45-.107q1.921-3.361,3.87-6.706c.133-.229.087-.321-.128-.444q-2.655-1.519-5.3-3.059a1.213,1.213,0,0,1-.673-1.389.956.956,0,0,1,.1-.259c.214-.38.425-.763.657-1.134a1.165,1.165,0,0,1,1.459-.453,3.487,3.487,0,0,1,.37.191L22.88,28.455a3.614,3.614,0,0,1,.306.193,1.165,1.165,0,0,1,.359,1.553c-.187.342-.383.679-.583,1.014a1.2,1.2,0,0,1-1.615.5l-.066-.038c-.449-.244-.887-.507-1.329-.763-1.359-.784-2.72-1.565-4.075-2.357-.2-.117-.3-.123-.43.1q-1.927,3.38-3.881,6.733c-.128.219-.082.308.122.424Q14.349,37.335,17,38.874a1.13,1.13,0,0,1,.666,1.4,6.691,6.691,0,0,1-.908,1.583,1.063,1.063,0,0,1-1.349.228c-.126-.059-.247-.13-.367-.2L8.065,37.863" transform="translate(-0.164 -17.602)" fill="#1fc5ab"/>
        <path id="Path_4628" data-name="Path 4628" d="M3.993,153.21a.613.613,0,0,1-.273-.914c.137-.263.3-.514.445-.771a.338.338,0,0,1,.087-.113q-1.71-.987-3.416-1.98a2.054,2.054,0,0,1-.642-.557,1.075,1.075,0,0,1-.023-1.194c.252-.452.528-.91.784-1.374.123-.213.245-.124.387-.042l11.866,6.851c.318.184.319.184.136.5l-.669,1.158a1.205,1.205,0,0,1-1.76.478c-.261-.142-.514-.3-.772-.446l-2.8-1.618a.387.387,0,0,1-.071.171c-.147.224-.269.466-.4.7a.626.626,0,0,1-.963.245L4,153.206Z" transform="translate(0 -128.414)" fill="#1fc5ab"/>
        <path id="Path_4629" data-name="Path 4629" d="M95.236,9.2,83.37,2.347c-.321-.187-.32-.188-.137-.505L83.9.684a1.2,1.2,0,0,1,1.76-.478c.227.124.448.259.673.388l2.9,1.674a.362.362,0,0,1,.064-.16c.156-.242.288-.5.438-.744a.616.616,0,0,1,.927-.226L92.59,2.252a.611.611,0,0,1,.269.9c-.139.272-.306.53-.453.8a.323.323,0,0,1-.082.1q1.71.988,3.416,1.98a2.06,2.06,0,0,1,.641.557,1.073,1.073,0,0,1,.027,1.188c-.255.464-.529.917-.787,1.378-.109.188-.216.141-.339.07Z" transform="translate(-73.01 0)" fill="#1fc5ab"/>
        <path id="Path_4630" data-name="Path 4630" d="M210.081,71.6,204.874,68.6a.885.885,0,0,1-.362-1.352c.122-.211.242-.424.366-.634a.964.964,0,0,1,.16-.208.871.871,0,0,1,1.094-.1c.472.261.927.534,1.391.8.836.478,1.679.958,2.512,1.449.159.091.23.094.327-.078q1.4-2.45,2.823-4.891c.1-.161.063-.234-.087-.325q-1.946-1.106-3.878-2.23a.884.884,0,0,1-.491-1.013.691.691,0,0,1,.07-.19c.156-.278.31-.556.478-.826a.845.845,0,0,1,1.065-.33,2.576,2.576,0,0,1,.264.136l10.275,5.93a2.541,2.541,0,0,1,.223.141.852.852,0,0,1,.262,1.136c-.135.249-.28.495-.425.74a.871.871,0,0,1-1.179.357l-.049-.028c-.328-.18-.646-.37-.969-.556-.991-.572-1.984-1.142-2.972-1.718-.146-.085-.22-.09-.314.075q-1.407,2.46-2.837,4.915c-.091.159-.061.224.084.311q1.94,1.109,3.872,2.232a.825.825,0,0,1,.486,1.023,4.886,4.886,0,0,1-.662,1.153.777.777,0,0,1-.983.167c-.092-.042-.179-.094-.268-.145Z" transform="translate(-179.502 -51.479)" fill="#1fc5ab"/>
        <path id="Path_4631" data-name="Path 4631" d="M207.086,155.746a.448.448,0,0,1-.244-.584.454.454,0,0,1,.044-.082c.1-.192.217-.375.324-.56a.25.25,0,0,1,.064-.083L204.78,153a1.5,1.5,0,0,1-.47-.41.783.783,0,0,1-.022-.872c.193-.334.393-.665.579-1,.09-.156.178-.091.283-.031l8.656,5c.232.134.233.135.1.367l-.487.844a.879.879,0,0,1-1.285.349l-.56-.324-2.044-1.18a.277.277,0,0,1-.049.121c-.107.164-.194.336-.294.51a.457.457,0,0,1-.7.179l-1.393-.8Z" transform="translate(-179.358 -132.313)" fill="#1fc5ab"/>
        <path id="Path_4632" data-name="Path 4632" d="M273.664,50.708l-8.655-5c-.234-.135-.234-.136-.1-.367l.487-.844a.879.879,0,0,1,1.286-.348l.492.284,2.111,1.218a.259.259,0,0,1,.049-.121c.114-.176.21-.363.314-.545a.449.449,0,0,1,.6-.207.442.442,0,0,1,.08.05l1.407.812a.445.445,0,0,1,.233.585.462.462,0,0,1-.036.067c-.1.2-.223.387-.335.579a.237.237,0,0,1-.06.076l2.494,1.44a1.508,1.508,0,0,1,.467.405.783.783,0,0,1,.017.874c-.186.341-.388.673-.579,1-.08.138-.158.1-.248.051Z" transform="translate(-232.641 -38.653)" fill="#1fc5ab"/>
      </g>
    </g>
  </g>
</svg>
