<svg xmlns="http://www.w3.org/2000/svg" xmlns:xlink="http://www.w3.org/1999/xlink" width="48" height="48" viewBox="0 0 48 48">
  <defs>
    <clipPath id="clip-ic_jacuzzi">
      <rect width="48" height="48"/>
    </clipPath>
  </defs>
  <g id="ic_jacuzzi" clip-path="url(#clip-ic_jacuzzi)">
    <g id="Group_3290" data-name="Group 3290" transform="translate(-2825.755 -7590.597)">
      <path id="Path_4583" data-name="Path 4583" d="M64.4,173.231c.376-1.436-.146-2.2-1.582-2.78a6.3,6.3,0,0,1-3.32-4.191c-.867-2.633-1.545-5.327-2.318-7.991-.163-.56.193-.61.577-.737,1.982-.656,3.937-.253,5.887.138,3.869.777,7.4,2.512,11.058,3.893A32.581,32.581,0,0,0,79.592,163c2.717.562,5.321-.251,7.918-.935.244-.064.484-.142.729-.2.051-.012.115.027.25.064-.947,2.7-1.527,5.563-3.678,7.656a5.659,5.659,0,0,1-2.138,1.323c-.785.25-1.059.571-1.013,1.365.021.365-.136.98-.373,1.073a.985.985,0,0,1-1.4-.675,2.15,2.15,0,0,0-2.5-1.535c-3.027.122-6.064.072-9.1.009a1.57,1.57,0,0,0-1.791,1.116,1.4,1.4,0,0,1-2.1.969" transform="translate(2777.229 7456.753)" fill="#1fc5ab"/>
      <path id="Path_4584" data-name="Path 4584" d="M65.246,135.321c-3.041.057-5.7-1.2-8.4-2.371a38.365,38.365,0,0,0-11.272-3.426,23.561,23.561,0,0,0-4.123.2,10.879,10.879,0,0,0-1.192.3,1.386,1.386,0,1,1-.724-2.673,13.712,13.712,0,0,1,6.347-.57,41.546,41.546,0,0,1,12.368,3.684,33.749,33.749,0,0,0,5.047,1.863c2.384.664,4.683-.153,6.971-.742.732-.188,1.441-.464,2.171-.66.979-.264,1.691.061,1.929.837.274.894-.059,1.479-1.117,1.829a27.838,27.838,0,0,1-8.012,1.732" transform="translate(2793.289 7483.017)" fill="#1fc5ab"/>
      <path id="Path_4585" data-name="Path 4585" d="M197.265,58.035c.686.36,1.2.652.683,1.571-.45.806.173,1.487.6,2.142a3.106,3.106,0,0,1-.177,4.1c-.661-.373-1.167-.716-.657-1.64.436-.79-.161-1.442-.59-2.048a3.145,3.145,0,0,1-.235-3.7,3.244,3.244,0,0,1,.373-.431" transform="translate(2657.463 7542.023)" fill="#1fc5ab"/>
      <path id="Path_4586" data-name="Path 4586" d="M124.708,55.39c-.735-.365-1.212-.7-.695-1.6.487-.839-.21-1.482-.626-2.122a3.241,3.241,0,0,1-.119-3.79,2.394,2.394,0,0,1,.268-.286c.766.334,1.111.668.741,1.634a2.716,2.716,0,0,0,.534,1.941,3.34,3.34,0,0,1-.1,4.218" transform="translate(2720.834 7551)" fill="#1fc5ab"/>
      <path id="Path_4587" data-name="Path 4587" d="M160.39,52.538l1.045.832c-1.077,1.165-.333,2.112.332,3.108a2.994,2.994,0,0,1-.324,3.907l-1.058-.816c.923-1.111.42-2.042-.244-3a3.013,3.013,0,0,1,.25-4.026" transform="translate(2689.209 7546.751)" fill="#1fc5ab"/>
      <path id="Path_4588" data-name="Path 4588" d="M234.2,63.336c.789.344,1.154.727.68,1.592-.432.789.183,1.424.6,2.044a3.271,3.271,0,0,1-.113,4.182l-1.119-.812c.951-1.146.391-2.086-.284-3.073a3.073,3.073,0,0,1,.236-3.933" transform="translate(2625.673 7537.464)" fill="#1fc5ab"/>
    </g>
  </g>
</svg>
