<svg xmlns="http://www.w3.org/2000/svg" xmlns:xlink="http://www.w3.org/1999/xlink" width="48" height="48" viewBox="0 0 48 48">
  <defs>
    <clipPath id="clip-ic_kidsroom">
      <rect width="48" height="48"/>
    </clipPath>
  </defs>
  <g id="ic_kidsroom" clip-path="url(#clip-ic_kidsroom)">
    <path id="Path_4704" data-name="Path 4704" d="M58.527,79.15c2.3,0,4.609,0,6.914,0A4.77,4.77,0,0,1,68.685,80.3c.82.7,1.735,1.287,2.622,1.9a4.889,4.889,0,0,0,2.384.6A2.127,2.127,0,0,1,75.8,84.787c.21,1.4.407,2.8.491,4.2.118,1.968.056,3.947.2,5.913a5.56,5.56,0,0,1-4.017,5.179,27.415,27.415,0,0,1-4.536.565,1.573,1.573,0,0,0-.765.272,7.857,7.857,0,0,1-3.679,1.27,46.655,46.655,0,0,1-9.068.109,10.115,10.115,0,0,1-3.658-.84,2.37,2.37,0,0,1-.628-.349,2.407,2.407,0,0,0-1.716-.517,18.4,18.4,0,0,1-4.238-.625,5.556,5.556,0,0,1-3.68-5.019c.167-2.471.175-4.953.317-7.427a19.557,19.557,0,0,1,.448-3,2.072,2.072,0,0,1,1.973-1.708,5.433,5.433,0,0,0,2.783-.774c.836-.6,1.683-1.188,2.46-1.855a3.885,3.885,0,0,1,2.357-.989c1.176-.066,2.357-.039,3.535-.044,1.38-.005,2.76,0,4.14,0m0,5.38c-2.25,0-4.5.006-6.749-.006-.331,0-.472.061-.47.435q.021,4.936,0,9.872c0,.376.127.467.487.466q6.709-.016,13.418,0c.4,0,.491-.133.489-.5q-.018-4.9,0-9.792c0-.4-.139-.481-.509-.479-2.223.015-4.446.007-6.669.007M47.712,91.695c0-.517.012-.981,0-1.443-.01-.266.093-.352.35-.342.374.015.749,0,1.123.005.217,0,.323-.075.32-.3-.006-.4-.008-.8,0-1.2.006-.245-.106-.327-.34-.32-.361.011-.723-.011-1.083.006-.275.013-.383-.078-.371-.363.02-.46.005-.922.005-1.394H45.92c0,.467-.015.9.005,1.338.015.308-.084.438-.407.419-.36-.021-.722,0-1.083-.006-.241-.006-.339.1-.334.333.008.372.012.746,0,1.118-.011.283.116.376.385.366.361-.013.722.006,1.083-.005.255-.008.365.084.355.347-.014.385,0,.772,0,1.157,0,.2.075.286.284.282.479-.009.959,0,1.508,0M72.888,86.32A1.811,1.811,0,0,0,71.1,88.106a1.8,1.8,0,1,0,3.594-.016,1.808,1.808,0,0,0-1.8-1.77M67.517,91.7a1.783,1.783,0,1,0,1.77-1.775,1.757,1.757,0,0,0-1.77,1.775" transform="translate(-34.506 -67.149)" fill="#1fc5ab"/>
  </g>
</svg>
