<svg xmlns="http://www.w3.org/2000/svg" xmlns:xlink="http://www.w3.org/1999/xlink" width="48" height="48" viewBox="0 0 48 48">
  <defs>
    <clipPath id="clip-ic_music">
      <rect width="48" height="48"/>
    </clipPath>
  </defs>
  <g id="ic_music" clip-path="url(#clip-ic_music)">
    <path id="Path_4703" data-name="Path 4703" d="M88.321,120.319v-1.107c0-4.343.011-8.685-.013-13.027a.974.974,0,0,1,.843-1.144c5.609-1.583,11.2-3.217,16.8-4.831a5.724,5.724,0,0,1,.642-.1c.014.309.034.553.034.8q0,9.658,0,19.316a5.241,5.241,0,0,1-4.222,5.262,5.177,5.177,0,0,1-5.844-3.242,4.927,4.927,0,0,1,1.055-5.479,5.079,5.079,0,0,1,5.622-1.317c.228.088.458.17.8.3v-8.752c-1.311.37-2.528.707-3.741,1.057-2.9.833-5.785,1.7-8.692,2.49-.629.172-.756.475-.754,1.051q.023,6.589,0,13.177a5.235,5.235,0,1,1-6.246-5.034,6.065,6.065,0,0,1,3.716.59" transform="translate(-69.367 -91.107)" fill="#1fc5ab"/>
  </g>
</svg>
