<svg xmlns="http://www.w3.org/2000/svg" xmlns:xlink="http://www.w3.org/1999/xlink" width="48" height="48" viewBox="0 0 48 48">
  <defs>
    <clipPath id="clip-ic_parking">
      <rect width="48" height="48"/>
    </clipPath>
  </defs>
  <g id="ic_parking" clip-path="url(#clip-ic_parking)">
    <g id="Group_3292" data-name="Group 3292" transform="translate(-6047.064 -7695.587)">
      <g id="Group_3223" data-name="Group 3223" transform="translate(6053.064 7703.587)">
        <path id="Path_4555" data-name="Path 4555" d="M72.9,86.49c-.131-.387-.226-.69-.336-.988q-1.158-3.147-2.32-6.292c-.225-.61-.307-.667-.971-.667H59.639c-.567,0-.568,0-.568-.584,0-.987.01-1.975-.006-2.961,0-.3.088-.411.4-.41,3.61.009,7.22-.009,10.829.013a3.654,3.654,0,0,1,3.534,2.637c.942,2.879,1.892,5.756,2.817,8.641a4.5,4.5,0,0,1,.222,1.339q.022,8.442.009,16.885a2.012,2.012,0,0,1-2.195,2.2c-1.208,0-2.416,0-3.624,0a1.969,1.969,0,0,1-2.079-1.994,14.047,14.047,0,0,1,0-1.458c.027-.416-.134-.527-.532-.525-2.9.013-5.8.008-8.707.007-.782,0-.665.031-.665-.662q0-7.293,0-14.586c0-.59,0-.59.606-.59H72.9Zm0,6.924a2.963,2.963,0,0,0-2.965-2.979,3,3,0,0,0-2.959,3,2.962,2.962,0,0,0,5.924-.023" transform="translate(-59.065 -74.587)" fill="#1fc5ab"/>
        <path id="Union_11" data-name="Union 11" d="M5.229,31.583V11.893H1.385A1.322,1.322,0,0,1,0,10.514Q0,8.23,0,5.945,0,3.676,0,1.406A1.324,1.324,0,0,1,1.4,0h9.064a1.325,1.325,0,0,1,1.406,1.4q0,4.546,0,9.093a1.325,1.325,0,0,1-1.393,1.4H7.148v19.69ZM4.126,2.755c-.143.019-.172.07-.172.2,0,1.021,0,2.042,0,3.063s0,2.032,0,3.048c0,.153.046.192.192.187.214-.007.429-.006.644,0h.284c.2,0,.205,0,.205-.2,0-.673,0-1.345,0-2.017,0-.112.023-.155.151-.139A3.935,3.935,0,0,0,6.875,6.82,2.008,2.008,0,0,0,8.532,5.14a2.021,2.021,0,0,0-.448-1.776A2.265,2.265,0,0,0,6.5,2.676c-.261-.024-.523-.034-.784-.034A12.32,12.32,0,0,0,4.126,2.755Z" transform="translate(24.128 0.132)" fill="#1fc5ab" stroke="rgba(0,0,0,0)" stroke-miterlimit="10" stroke-width="1"/>
      </g>
      <path id="Path_4557" data-name="Path 4557" d="M276.348,104.378c0-.25.007-.5,0-.75-.005-.136.027-.2.176-.218a2.6,2.6,0,0,1,.978.011.87.87,0,0,1,.7.759,1,1,0,0,1-.5,1.048,1.838,1.838,0,0,1-1.262.113c-.083-.016-.093-.068-.093-.139,0-.274,0-.549,0-.824" transform="translate(5806.123 7604.114)" fill="#1fc5ab"/>
    </g>
  </g>
</svg>
