<svg xmlns="http://www.w3.org/2000/svg" xmlns:xlink="http://www.w3.org/1999/xlink" width="36" height="36" viewBox="0 0 36 36">
  <defs>
    <clipPath id="clip-ic_profile_settings">
      <rect width="36" height="36"/>
    </clipPath>
  </defs>
  <g id="ic_profile_settings" clip-path="url(#clip-ic_profile_settings)">
    <g id="Group_3281" data-name="Group 3281" transform="translate(-540 -733)">
      <path id="ic_settings_24px" d="M16,10.784A6.234,6.234,0,0,0,16.054,10,6.234,6.234,0,0,0,16,9.216L17.686,7.9a.4.4,0,0,0,.1-.512l-1.6-2.768a.4.4,0,0,0-.488-.176l-1.992.8a5.845,5.845,0,0,0-1.352-.784l-.3-2.12A.39.39,0,0,0,11.654,2h-3.2a.39.39,0,0,0-.392.336l-.3,2.12a6.146,6.146,0,0,0-1.352.784l-1.992-.8a.39.39,0,0,0-.488.176l-1.6,2.768a.394.394,0,0,0,.1.512L4.11,9.216A6.344,6.344,0,0,0,4.054,10a6.344,6.344,0,0,0,.056.784L2.422,12.1a.4.4,0,0,0-.1.512l1.6,2.768a.4.4,0,0,0,.488.176l1.992-.8a5.845,5.845,0,0,0,1.352.784l.3,2.12A.39.39,0,0,0,8.454,18h3.2a.39.39,0,0,0,.392-.336l.3-2.12A6.146,6.146,0,0,0,13.7,14.76l1.992.8a.39.39,0,0,0,.488-.176l1.6-2.768a.4.4,0,0,0-.1-.512ZM10.054,12.8a2.8,2.8,0,1,1,2.8-2.8A2.8,2.8,0,0,1,10.054,12.8Z" transform="translate(547.729 741)" fill="#5761b2"/>
      <circle id="Ellipse_182" data-name="Ellipse 182" cx="18" cy="18" r="18" transform="translate(540 733)" fill="#5761b2" opacity="0.2"/>
    </g>
  </g>
</svg>
