<svg xmlns="http://www.w3.org/2000/svg" xmlns:xlink="http://www.w3.org/1999/xlink" width="48" height="48" viewBox="0 0 48 48">
  <defs>
    <clipPath id="clip-ic_swimming">
      <rect width="48" height="48"/>
    </clipPath>
  </defs>
  <g id="ic_swimming" clip-path="url(#clip-ic_swimming)">
    <g id="Group_3285" data-name="Group 3285" transform="translate(-509 -2658)">
      <path id="Path_4505" data-name="Path 4505" d="M48,48H0V0H48V48M18.82,25.958h.715c3.839,0,7.677.009,11.515-.011.506,0,.663.15.64.648-.037.815.008,1.634-.017,2.451-.012.394.15.543.516.576a5.176,5.176,0,0,0,2.547-.476.92.92,0,0,0,.638-.985c-.023-5.548-.016-11.1-.013-16.646a1.9,1.9,0,0,1,2.1-2.132c.508-.007,1.016,0,1.6,0,0-.674.009-1.278,0-1.881-.011-.565.169-1.369-.124-1.631-.339-.3-1.105-.16-1.685-.151A5.5,5.5,0,0,0,31.684,11.3c-.015.931,0,1.862,0,2.793,0,.816,0,.816-.844.816H18.845v3.714H31.681c0,1.043-.03,2.03.012,3.013.023.543-.175.663-.683.66-3.838-.019-7.677-.011-11.515-.009-.219,0-.438.018-.674.029ZM18.81,37.091c-3.072,2.354-6.142,2.362-9.261-.023A6.861,6.861,0,0,1,5.967,38.8v3.652a6.674,6.674,0,0,0,3.59-1.693c3.14,2.38,6.211,2.357,9.269,0a6.832,6.832,0,0,0,9.154,0c3.1,2.377,6.184,2.362,9.264-.012A6.732,6.732,0,0,0,42.223,42.5c.17-.008.472-.193.475-.3.036-1.114.022-2.229.022-3.385a7.032,7.032,0,0,1-5.483-1.741c-3.133,2.384-6.2,2.364-9.262.006a6.861,6.861,0,0,1-9.165.01m-.021-7.381a6.879,6.879,0,0,1-9.218-.023A6.918,6.918,0,0,1,6.17,31.4a.415.415,0,0,0-.242.311c-.018,1.1-.011,2.194-.011,3.353A6.381,6.381,0,0,0,9.558,33.4c3.148,2.384,6.222,2.344,9.282,0a6.792,6.792,0,0,0,9.124,0c3.125,2.375,6.2,2.361,9.279,0,.128.106.257.217.391.322a6.722,6.722,0,0,0,4.573,1.427c.174-.007.485-.19.489-.3.036-1.114.022-2.229.022-3.393A6.975,6.975,0,0,1,37.244,29.7q-4.645,3.58-9.272.009c-3.059,2.374-5.79,2.381-9.184,0M20.631,9.383c0-1.166.012-2.261-.019-3.356,0-.108-.261-.289-.411-.3a14.537,14.537,0,0,0-1.537-.007,5.48,5.48,0,0,0-5.385,5.462c-.037,5.961-.008,11.922-.022,17.883,0,.412.181.524.529.556a5.161,5.161,0,0,0,2.6-.5.9.9,0,0,0,.594-.961q-.027-8.344-.009-16.687a1.864,1.864,0,0,1,2.071-2.088c.507-.008,1.014,0,1.593,0" transform="translate(509 2658)" fill="none"/>
      <g id="Group_3175" data-name="Group 3175" transform="translate(514.915 2663.678)">
        <path id="Path_4506" data-name="Path 4506" d="M164.677,69.966V66.33c.236-.01.455-.029.674-.029,3.839,0,7.677-.01,11.515.009.508,0,.706-.117.683-.66-.042-.983-.012-1.97-.012-3.013H164.7V58.923h11.992c.843,0,.843,0,.844-.816,0-.931-.011-1.862,0-2.793a5.5,5.5,0,0,1,5.562-5.585c.58-.01,1.346-.151,1.684.151.294.262.113,1.066.125,1.631.012.6,0,1.207,0,1.881-.579,0-1.088-.005-1.6,0a1.9,1.9,0,0,0-2.1,2.132c0,5.549-.01,11.1.013,16.646a.92.92,0,0,1-.638.985,5.175,5.175,0,0,1-2.547.476c-.366-.033-.529-.182-.516-.576.026-.816-.02-1.635.017-2.451.023-.5-.134-.651-.64-.648-3.838.019-7.677.011-11.515.011h-.715" transform="translate(-151.772 -49.687)" fill="#1fc5ab"/>
        <path id="Path_4507" data-name="Path 4507" d="M65.056,324.37a6.861,6.861,0,0,0,9.165-.01c3.06,2.358,6.129,2.378,9.262-.006a7.032,7.032,0,0,0,5.483,1.741c0,1.156.014,2.271-.022,3.385,0,.111-.305.3-.475.3a6.732,6.732,0,0,1-4.978-1.753c-3.081,2.374-6.166,2.389-9.264.012a6.832,6.832,0,0,1-9.154,0c-3.058,2.353-6.129,2.376-9.269,0a6.674,6.674,0,0,1-3.59,1.693v-3.652a6.862,6.862,0,0,0,3.581-1.729c3.119,2.384,6.19,2.376,9.261.023" transform="translate(-52.162 -292.957)" fill="#1fc5ab"/>
        <path id="Path_4508" data-name="Path 4508" d="M64.632,259.778c3.394,2.383,6.126,2.376,9.184,0q4.635,3.573,9.271-.009a6.975,6.975,0,0,0,5.473,1.746c0,1.164.014,2.279-.022,3.393,0,.109-.315.292-.489.3a6.723,6.723,0,0,1-4.573-1.427c-.134-.1-.263-.216-.391-.322-3.082,2.361-6.154,2.375-9.279,0a6.792,6.792,0,0,1-9.124,0c-3.06,2.349-6.133,2.389-9.282,0a6.383,6.383,0,0,1-3.641,1.668c0-1.159-.007-2.256.011-3.353a.415.415,0,0,1,.242-.311,6.918,6.918,0,0,0,3.4-1.713,6.879,6.879,0,0,0,9.218.023" transform="translate(-51.759 -235.747)" fill="#1fc5ab"/>
        <path id="Path_4509" data-name="Path 4509" d="M123.376,53.592c-.579,0-1.087-.006-1.593,0a1.864,1.864,0,0,0-2.071,2.088q-.008,8.344.009,16.687a.9.9,0,0,1-.594.961,5.161,5.161,0,0,1-2.6.5c-.348-.031-.53-.143-.529-.556.014-5.961-.015-11.922.022-17.883a5.48,5.48,0,0,1,5.385-5.462,14.537,14.537,0,0,1,1.537.007c.149.011.408.191.411.3.031,1.094.019,2.19.019,3.356" transform="translate(-108.661 -49.887)" fill="#1fc5ab"/>
      </g>
    </g>
  </g>
</svg>
