<svg xmlns="http://www.w3.org/2000/svg" xmlns:xlink="http://www.w3.org/1999/xlink" width="48" height="48" viewBox="0 0 48 48">
  <defs>
    <clipPath id="clip-ic_tabletennis">
      <rect width="48" height="48"/>
    </clipPath>
  </defs>
  <g id="ic_tabletennis" clip-path="url(#clip-ic_tabletennis)">
    <g id="Group_3222" data-name="Group 3222" transform="translate(-1895.007 -4203.279)">
      <path id="Path_4625" data-name="Path 4625" d="M53.006,40.322A13.723,13.723,0,0,1,65.3,48.348c.471.945.438.961-.316,1.716Q57.717,57.33,50.461,64.605a.777.777,0,0,1-1.022.211A13.791,13.791,0,0,1,41.11,51.2a11.688,11.688,0,0,1,9.473-10.61,18.664,18.664,0,0,1,2.424-.266M47.49,49.738a2.5,2.5,0,1,0,2.518,2.5,2.5,2.5,0,0,0-2.518-2.5" transform="translate(1862.936 4171.957)" fill="#1fc5ab"/>
      <path id="Path_4626" data-name="Path 4626" d="M188.022,201.321l13.495-13.5a10.02,10.02,0,0,1,.085,2.688,12.976,12.976,0,0,1-1.384,4.853c-.128.247,0,.33.159.447,1.491,1.084,2.951,2.208,4.357,3.4a3.52,3.52,0,0,1,1.345,3.36,3.7,3.7,0,0,1-2.693,3.167,3.459,3.459,0,0,1-3.9-1.115c-1.221-1.417-2.389-2.877-3.468-4.405-.171-.242-.3-.278-.578-.142a12.878,12.878,0,0,1-7.246,1.275c-.066-.008-.13-.021-.17-.028" transform="translate(1727.884 4036.401)" fill="#1fc5ab"/>
    </g>
  </g>
</svg>
