<svg xmlns="http://www.w3.org/2000/svg" xmlns:xlink="http://www.w3.org/1999/xlink" width="48" height="48" viewBox="0 0 48 48">
  <defs>
    <clipPath id="clip-ic_tennis">
      <rect width="48" height="48"/>
    </clipPath>
  </defs>
  <g id="ic_tennis" clip-path="url(#clip-ic_tennis)">
    <g id="Group_3162" data-name="Group 3162" transform="translate(6 6)">
      <path id="Path_4495" data-name="Path 4495" d="M158.88,78.612c.648.1,1.238.216,1.833.261.58.044,1.166.009,1.791.009-.068.424-.163.923-.226,1.425a7.965,7.965,0,0,0,.505,4.133,5.628,5.628,0,0,0,4.821,3.45,10.775,10.775,0,0,0,7.012-1.686A15.087,15.087,0,0,0,181.745,77a8.255,8.255,0,0,0,.015-4.96,5.925,5.925,0,0,0-5.21-4.141,10.684,10.684,0,0,0-6.81,1.626c-.144.081-.293.154-.518.272a6.71,6.71,0,0,0-1.269-3.67c.607-.27,1.157-.535,1.722-.764a15.676,15.676,0,0,1,6.836-1.219,9.75,9.75,0,0,1,9.054,7.89,14.121,14.121,0,0,1-2.028,10.378,18.587,18.587,0,0,1-11.233,8.631,13.058,13.058,0,0,1-5.579.267,11.966,11.966,0,0,0-2.908.085,10.984,10.984,0,0,0-3.575.863,12.278,12.278,0,0,0-1.514.883c-.18.116-.3.19-.472.008-.469-.483-.958-.947-1.418-1.439a.4.4,0,0,1-.031-.381,8.044,8.044,0,0,0,1.647-4.093,19.575,19.575,0,0,0,.2-5.353,11.06,11.06,0,0,1,.225-3.27" transform="translate(-149.07 -64.121)" fill="#1fc5ab"/>
      <path id="Path_4496" data-name="Path 4496" d="M162.137,75.945a8.279,8.279,0,0,0,1.814-5.316,9.078,9.078,0,0,0-1.8-5.317c1.427-1.444,5.4-1.651,7.305-.039a8.193,8.193,0,0,0-1.809,5.324,7.649,7.649,0,0,0,1.786,5.328c-1.486,1.4-5.246,1.641-7.3.02" transform="translate(-153.974 -64.142)" fill="#1fc5ab"/>
      <path id="Path_4497" data-name="Path 4497" d="M72.528,389.41l3.5,3.513c-.042.047-.127.155-.225.251q-2.274,2.25-4.552,4.5a1.8,1.8,0,0,1-2.85.021l-.441-.409a1.806,1.806,0,0,1-.117-2.793c1.293-1.416,2.6-2.82,3.9-4.229l.782-.85" transform="translate(-67.241 -361.428)" fill="#1fc5ab"/>
      <path id="Path_4498" data-name="Path 4498" d="M131.874,88.419c2.3,1.9,1.6,7.48.022,8.724-2.163-1.765-2.185-6.392-.022-8.724" transform="translate(-124.841 -86.329)" fill="#1fc5ab"/>
      <path id="Path_4499" data-name="Path 4499" d="M244.9,97.38c-1.672-1.392-2.191-7.029,0-8.716,2.153,1.862,2.163,6.588,0,8.716" transform="translate(-228.292 -86.553)" fill="#1fc5ab"/>
    </g>
  </g>
</svg>
