<svg xmlns="http://www.w3.org/2000/svg" xmlns:xlink="http://www.w3.org/1999/xlink" width="36" height="36" viewBox="0 0 36 36">
  <defs>
    <clipPath id="clip-ic_tab_home_idle">
      <rect width="36" height="36"/>
    </clipPath>
  </defs>
  <g id="ic_tab_home_idle" clip-path="url(#clip-ic_tab_home_idle)">
    <path id="Path_4444" data-name="Path 4444" d="M11.614,123.936V122.33c0-1.5,0-3,0-4.5a1.483,1.483,0,0,0-1.658-1.683q-1.27-.011-2.541,0a1.453,1.453,0,0,0-1.623,1.621c-.006,1.9,0,3.806,0,5.71v.5H4.845c-.833,0-1.666.012-2.5,0a2.187,2.187,0,0,1-2.33-2.241c-.025-3.709-.013-7.418,0-11.127a2.282,2.282,0,0,1,.728-1.632c2.089-2.094,4.173-4.195,6.276-6.275a2.164,2.164,0,0,1,3.253.041c2.064,2.06,4.119,4.131,6.19,6.184a2.483,2.483,0,0,1,.776,1.86c-.007,3.612,0,7.224,0,10.836a2.136,2.136,0,0,1-1.537,2.258.73.73,0,0,1-.2.054c-1.274,0-2.547,0-3.878,0" transform="translate(9 -94.986)" fill="#ccd1da"/>
  </g>
</svg>
