<svg xmlns="http://www.w3.org/2000/svg" xmlns:xlink="http://www.w3.org/1999/xlink" width="36" height="36" viewBox="0 0 36 36">
  <defs>
    <clipPath id="clip-ic_tab_helpdesk_select">
      <rect width="36" height="36"/>
    </clipPath>
  </defs>
  <g id="ic_tab_helpdesk_select" clip-path="url(#clip-ic_tab_helpdesk_select)">
    <g id="Group_2568" data-name="Group 2568" transform="translate(-306.353 -2288)">
      <path id="Path_4441" data-name="Path 4441" d="M1023.45.054a4.353,4.353,0,0,1,4.389,4.828,5.277,5.277,0,0,1-.173.782.24.24,0,0,0,.07.267q4.224,4.216,8.44,8.441a.285.285,0,0,0,.307.066,3.624,3.624,0,0,1,2.179.147,3.728,3.728,0,0,1,2.489,3.228,3.852,3.852,0,0,1-7.265,2.129,3.778,3.778,0,0,1-.32-2.6.3.3,0,0,0-.089-.319q-4.211-4.2-8.414-8.412a.223.223,0,0,0-.262-.077,4.318,4.318,0,0,1-5.185-2.236,4.264,4.264,0,0,1-.22-3.271.425.425,0,0,1,.751-.17c.611.606,1.218,1.217,1.833,1.819a1.3,1.3,0,0,0,1.769.122,1.279,1.279,0,0,0,.2-1.78,2.7,2.7,0,0,0-.219-.24c-.576-.578-1.156-1.153-1.731-1.732a.433.433,0,0,1,.2-.785,3.8,3.8,0,0,1,1.252-.207M1038.8,18.206c0-.35,0-.7,0-1.051a.4.4,0,0,0-.445-.448q-1.031,0-2.063,0a.4.4,0,0,0-.446.452q-.005,1.031,0,2.063a.39.39,0,0,0,.431.444q1.05.009,2.1,0c.29,0,.42-.15.423-.448,0-.337,0-.675,0-1.012" transform="translate(-705.818 2294.95)" fill="#1fc5ab"/>
      <path id="Path_4442" data-name="Path 4442" d="M1026.648,274.2l4.295,4.294a7.31,7.31,0,0,1-.532.541.617.617,0,0,1-.351.108c-.312.015-.625.017-.937,0a.409.409,0,0,0-.394.195c-1.207,1.644-2.425,3.28-3.63,4.925a3.319,3.319,0,0,1-1.775,1.316,3.031,3.031,0,0,1-3.848-3,2.9,2.9,0,0,1,1.182-2.319c1.7-1.276,3.405-2.534,5.116-3.79a.49.49,0,0,0,.244-.485c-.021-.24.009-.485-.008-.726a.775.775,0,0,1,.29-.707,4.52,4.52,0,0,0,.35-.352" transform="translate(-706.108 2031.298)" fill="#1fc5ab"/>
      <path id="Path_4443" data-name="Path 4443" d="M1328.908,10.205,1327.2,8.5c.044-.046.093-.1.145-.153q2.251-2.252,4.5-4.506a.836.836,0,0,0,.186-.3c.152-.426.293-.856.433-1.286a.692.692,0,0,1,.345-.412c1.045-.573,2.086-1.152,3.129-1.728.305-.169.427-.15.675.1.212.212.426.421.635.636a.4.4,0,0,1,.08.553c-.6,1.089-1.2,2.178-1.81,3.258a.74.74,0,0,1-.369.276c-.422.161-.857.289-1.283.441a.836.836,0,0,0-.3.186q-2.257,2.247-4.506,4.5c-.049.049-.1.1-.154.148" transform="translate(-1002.05 2295)" fill="#1fc5ab"/>
    </g>
  </g>
</svg>
