<svg xmlns="http://www.w3.org/2000/svg" xmlns:xlink="http://www.w3.org/1999/xlink" width="48" height="48" viewBox="0 0 48 48">
  <defs>
    <clipPath id="clip-ic_yoga">
      <rect width="48" height="48"/>
    </clipPath>
  </defs>
  <g id="ic_yoga" clip-path="url(#clip-ic_yoga)">
    <g id="Group_3293" data-name="Group 3293" transform="translate(-11.681 -1099.388)">
      <path id="Path_4706" data-name="Path 4706" d="M57.817,0c.977.2,1.962.373,2.93.609C66.459,2,69.125,5.968,68.3,11.8a1.834,1.834,0,0,0,.158,1.085A38.4,38.4,0,0,1,73.2,31.024c.078,2.813.162,5.626.216,8.44a2.055,2.055,0,0,1-1.307,2.063A1.726,1.726,0,0,1,70,41.164a3.352,3.352,0,0,1-.72-1.846c-.194-3.537-.292-7.08-.434-10.62-.018-.44-.1-.877-.158-1.308-.923-.161-1.359.051-1.576,1.021a47.868,47.868,0,0,1-4.706,11.974,2.094,2.094,0,1,1-3.692-1.935,48.758,48.758,0,0,0,4.2-10.4c.1-.4.178-.8.236-1.072a32.573,32.573,0,0,1-3.308-2.464,6.962,6.962,0,0,1,1.036-10.706c1.469-.99,2.928-1.994,4.352-3.046a1.469,1.469,0,0,0,.525-1,5.542,5.542,0,0,0-3.5-5.74A33.165,33.165,0,0,0,56.942,2.73,4.826,4.826,0,0,0,55.8,2.694c-.769.019-1.468-.081-1.808-.91S54.219.5,54.689,0Zm5.6,23.557-2.284-5.839c-1.276,2.509-.51,4.527,2.284,5.839" transform="translate(-28.208 1102.388)" fill="#1fc5ab"/>
      <path id="Path_4707" data-name="Path 4707" d="M71.762,30.435A3.754,3.754,0,1,1,75.5,26.662a3.715,3.715,0,0,1-3.739,3.773" transform="translate(-39.36 1084.265)" fill="#1fc5ab"/>
    </g>
  </g>
</svg>
