<svg xmlns="http://www.w3.org/2000/svg" xmlns:xlink="http://www.w3.org/1999/xlink" width="90" height="90" viewBox="0 0 90 90">
  <defs>
    <clipPath id="clip-image_successful">
      <rect width="90" height="90"/>
    </clipPath>
  </defs>
  <g id="image_successful" clip-path="url(#clip-image_successful)">
    <path id="Subtraction_1" data-name="Subtraction 1" d="M-4085-70a44.716,44.716,0,0,1-17.516-3.536,44.847,44.847,0,0,1-14.3-9.644,44.849,44.849,0,0,1-9.645-14.3A44.729,44.729,0,0,1-4130-115a44.729,44.729,0,0,1,3.536-17.516,44.849,44.849,0,0,1,9.645-14.3,44.847,44.847,0,0,1,14.3-9.644A44.718,44.718,0,0,1-4085-160a44.721,44.721,0,0,1,17.516,3.536,44.85,44.85,0,0,1,14.3,9.644,44.847,44.847,0,0,1,9.644,14.3A44.714,44.714,0,0,1-4040-115a44.715,44.715,0,0,1-3.536,17.516,44.847,44.847,0,0,1-9.644,14.3,44.85,44.85,0,0,1-14.3,9.644A44.72,44.72,0,0,1-4085-70Zm-10.062-45.254h0L-4097-113.33l7.628,7.627L-4073-122.076l-1.924-1.924-14.448,14.435-5.689-5.689Z" transform="translate(4130 160)" fill="#1fc5ab"/>
  </g>
</svg>
