<svg xmlns="http://www.w3.org/2000/svg" xmlns:xlink="http://www.w3.org/1999/xlink" width="72" height="72" viewBox="0 0 72 72">
  <defs>
    <clipPath id="clip-image_outstandingdues">
      <rect width="72" height="72"/>
    </clipPath>
  </defs>
  <g id="image_outstandingdues" clip-path="url(#clip-image_outstandingdues)">
    <g id="Group_3298" data-name="Group 3298" transform="translate(-9 -9)">
      <g id="Group_3269" data-name="Group 3269" transform="translate(-4796.271 -3985)">
        <path id="Path_4684" data-name="Path 4684" d="M37.929,21.8q0,8.643,0,17.286c0,.194.008.389,0,.583a1.5,1.5,0,0,1-.9,1.387,1.415,1.415,0,0,1-1.565-.3c-.958-.838-1.892-1.7-2.85-2.542-.169-.148-.286-.485-.629-.28a.81.81,0,0,0-.465.772c.019,2.352.007,4.7.01,7.057a1.572,1.572,0,0,1-.839,1.557,1.268,1.268,0,0,1-1.543-.252c-.9-.836-1.834-1.641-2.707-2.506-.39-.386-.622-.427-1.04-.028-1.03.982-2.109,1.914-3.181,2.851a1.626,1.626,0,0,1-2.559-.022c-1.063-.948-2.129-1.893-3.165-2.869-.335-.315-.538-.358-.9-.018-1.049.995-2.134,1.95-3.215,2.911a1.645,1.645,0,0,1-2.524.005c-1.1-.968-2.2-1.941-3.278-2.937-.325-.3-.526-.295-.845.011-.811.775-1.673,1.5-2.489,2.265a1.849,1.849,0,0,1-2.15.588A1.906,1.906,0,0,1,.015,45.3Q.037,33.651.023,22c0-3.69.067-7.382-.022-11.07A4.48,4.48,0,0,1,4.366,6.4c.539-.025,1.08-.027,1.618-.006.344.013.455-.117.441-.45-.02-.5-.009-.992,0-1.489A4.5,4.5,0,0,1,10.829.017q11.59-.038,23.18,0A4.008,4.008,0,0,1,37.9,3.934c.029.343.026.69.026,1.035q0,8.416,0,16.833M2.269,44.571c.8-.7,1.554-1.37,2.308-2.039,1.14-1.012,1.925-1.013,3.056,0,1.013.906,2.038,1.8,3.035,2.723.331.307.541.347.9.009,1.032-.981,2.1-1.921,3.166-2.867A1.665,1.665,0,0,1,17.3,42.4c1.06.951,2.132,1.889,3.16,2.873.36.345.554.288.885-.02,1.09-1.013,2.205-2,3.328-2.978a1.509,1.509,0,0,1,2.3.051c.626.594,1.23,1.21,1.854,1.807.129.124.237.384.452.278.2-.1.073-.351.1-.534a1.4,1.4,0,0,0,0-.194q0-16.28,0-32.559c0-.237,0-.475-.015-.712A1.793,1.793,0,0,0,27.4,8.547q-11.361-.016-22.723,0a2.293,2.293,0,0,0-2.533,2.577q0,16.312,0,32.624a1.527,1.527,0,0,0,.117.822M35.8,38.38v-.8q0-16.441,0-32.883c0-.108,0-.216,0-.324a2.057,2.057,0,0,0-2.311-2.25H19.566c-2.805,0-5.61-.007-8.416,0A2.4,2.4,0,0,0,8.582,4.72a7.446,7.446,0,0,1-.008.97c-.078.584.155.715.718.713q8.966-.031,17.932-.011a4,4,0,0,1,4.3,4.328q0,11.943,0,23.885c0,.173.008.346,0,.518-.015.288.076.474.4.41a1.527,1.527,0,0,1,1.42.585c.751.728,1.535,1.422,2.45,2.262" transform="translate(4822.272 4006)" fill="#000c64"/>
        <path id="Path_4685" data-name="Path 4685" d="M16.671,101.924a1.527,1.527,0,0,1-.117-.822q0-16.312,0-32.624A2.293,2.293,0,0,1,19.085,65.9q11.361-.021,22.723,0a1.793,1.793,0,0,1,1.959,1.868c.018.236.015.474.015.712q0,16.28,0,32.559a1.4,1.4,0,0,1,0,.194c-.026.183.1.437-.1.534-.215.106-.323-.154-.452-.278-.623-.6-1.228-1.213-1.854-1.807a1.509,1.509,0,0,0-2.3-.051c-1.122.978-2.237,1.965-3.328,2.978-.331.308-.525.365-.885.02-1.028-.984-2.1-1.922-3.16-2.873a1.665,1.665,0,0,0-2.572-.008c-1.064.947-2.134,1.887-3.166,2.867-.355.338-.565.3-.9-.009-1-.924-2.021-1.817-3.035-2.723-1.131-1.011-1.915-1.009-3.056,0-.754.669-1.511,1.335-2.308,2.039M35.488,76c0-1.64.007-3.281,0-4.921a2.718,2.718,0,0,0-2.923-2.907q-2.137-.018-4.274,0a2.741,2.741,0,0,0-2.924,2.92q-.016,4.921,0,9.843a2.157,2.157,0,0,0,2.4,2.406q2.655.011,5.311,0a2.216,2.216,0,0,0,2.409-2.42c.01-1.64,0-3.281,0-4.922M30.414,89.985q-4.173,0-8.347,0c-.965,0-1.469.376-1.458,1.072S21.135,92.1,22.1,92.1h.065q8.282,0,16.564,0a2.9,2.9,0,0,0,.768-.066,1.045,1.045,0,0,0,.151-1.942,2.084,2.084,0,0,0-.824-.105q-4.206-.01-8.412,0m.034,4.273q-3.623,0-7.246,0c-.539,0-1.079-.015-1.617.018a.947.947,0,0,0-.953.955.977.977,0,0,0,.8,1.1,2.256,2.256,0,0,0,.576.054q8.41,0,16.821,0a1.888,1.888,0,0,0,.763-.105,1,1,0,0,0,.652-.954,1.017,1.017,0,0,0-.56-.953,1.735,1.735,0,0,0-.887-.115q-4.173,0-8.346,0M26.14,87.833c1.424,0,2.848.006,4.271,0,.822,0,1.27-.379,1.283-1.044.013-.688-.448-1.09-1.306-1.092q-4.239-.01-8.478,0c-.8,0-1.284.409-1.3,1.049s.494,1.082,1.323,1.086c1.4.007,2.8,0,4.207,0" transform="translate(4807.87 3948.646)" fill="#ccd1da"/>
        <path id="Path_4686" data-name="Path 4686" d="M93.3,52.639c-.914-.84-1.7-1.534-2.45-2.262a1.527,1.527,0,0,0-1.42-.585c-.327.065-.418-.121-.4-.41.009-.172,0-.345,0-.518q0-11.943,0-23.885a4,4,0,0,0-4.3-4.328q-8.966-.007-17.932.011c-.563,0-.8-.129-.718-.713a7.446,7.446,0,0,0,.008-.97,2.4,2.4,0,0,1,2.569-2.591c2.805-.01,5.61,0,8.416,0H90.986a2.057,2.057,0,0,1,2.311,2.25c0,.108,0,.216,0,.324q0,16.442,0,32.883v.8" transform="translate(4764.771 3991.741)" fill="#1fc5ab"/>
        <path id="Path_4687" data-name="Path 4687" d="M94.664,91.265c0,1.64.007,3.281,0,4.921a2.216,2.216,0,0,1-2.41,2.42q-2.655.011-5.31,0a2.157,2.157,0,0,1-2.4-2.406q-.016-4.922,0-9.843a2.741,2.741,0,0,1,2.924-2.92q2.137-.021,4.274,0a2.718,2.718,0,0,1,2.923,2.907c.009,1.64,0,3.281,0,4.922M86.7,89.591c0,1.078.015,2.157-.008,3.235-.009.416.116.569.548.564q2.361-.031,4.723,0c.459.006.593-.16.59-.6q-.026-3.17,0-6.34c.006-.621-.267-.856-.853-.853q-2.1.012-4.205,0c-.578,0-.812.255-.8.829.021,1.056.006,2.113.005,3.17m2.869,6.891c.839,0,1.678-.009,2.517,0,.318.005.473-.076.467-.431-.006-.33-.059-.519-.456-.515-1.635.016-3.27.013-4.905,0-.347,0-.5.091-.5.47s.131.486.491.476c.8-.02,1.592-.006,2.388-.006" transform="translate(4748.692 3933.383)" fill="#000c64"/>
        <path id="Path_4688" data-name="Path 4688" d="M57.705,251.818q4.206,0,8.411,0a2.083,2.083,0,0,1,.825.105,1.045,1.045,0,0,1-.151,1.942,2.9,2.9,0,0,1-.768.066q-8.282,0-16.564,0h-.065c-.968,0-1.482-.364-1.493-1.048s.493-1.071,1.458-1.072q4.173,0,8.347,0" transform="translate(4780.578 3786.813)" fill="#000c64"/>
        <path id="Path_4689" data-name="Path 4689" d="M57.869,284.777q4.173,0,8.346,0a1.734,1.734,0,0,1,.887.115,1.017,1.017,0,0,1,.56.953,1,1,0,0,1-.652.954,1.885,1.885,0,0,1-.763.105q-8.41,0-16.821,0a2.251,2.251,0,0,1-.576-.054.977.977,0,0,1-.8-1.1.947.947,0,0,1,.953-.955c.537-.033,1.077-.017,1.616-.018q3.623,0,7.246,0" transform="translate(4780.448 3758.127)" fill="#000c64"/>
        <path id="Path_4690" data-name="Path 4690" d="M53.429,220.828c-1.4,0-2.8.005-4.207,0-.829,0-1.341-.433-1.323-1.086s.5-1.046,1.3-1.049q4.239-.013,8.478,0c.857,0,1.319.4,1.306,1.092-.013.665-.46,1.039-1.283,1.044-1.424.008-2.848,0-4.271,0" transform="translate(4780.58 3815.652)" fill="#000c64"/>
        <path id="Path_4691" data-name="Path 4691" d="M101.171,104.133c0-1.057.015-2.114-.006-3.17-.011-.574.223-.833.8-.829,1.4.011,2.8.009,4.206,0,.586,0,.859.231.853.853q-.031,3.17,0,6.34c0,.444-.131.61-.59.6q-2.361-.032-4.723,0c-.432.006-.557-.148-.548-.564.023-1.078.008-2.156.008-3.235" transform="translate(4734.218 3918.841)" fill="#1fc5ab"/>
        <path id="Path_4692" data-name="Path 4692" d="M104.029,177.85c-.8,0-1.592-.014-2.388.006-.36.009-.491-.106-.491-.477s.154-.473.5-.47c1.635.012,3.27.015,4.905,0,.4,0,.45.185.456.515.006.355-.149.436-.467.431-.839-.014-1.678,0-2.517,0" transform="translate(4734.229 3852.015)" fill="#1fc5ab"/>
        <rect id="Rectangle_45994" data-name="Rectangle 45994" width="37.932" height="48" transform="translate(4822.271 4006)" fill="none"/>
      </g>
      <g id="Rectangle_1761" data-name="Rectangle 1761" transform="translate(9 9)" fill="none" stroke="#000c64" stroke-width="1">
        <rect width="72" height="72" rx="10" stroke="none"/>
        <rect x="0.5" y="0.5" width="71" height="71" rx="9.5" fill="none"/>
      </g>
    </g>
  </g>
</svg>
