<svg xmlns="http://www.w3.org/2000/svg" xmlns:xlink="http://www.w3.org/1999/xlink" width="152" height="28" viewBox="0 0 152 28">
  <defs>
    <clipPath id="clip-logo_landing">
      <rect width="152" height="28"/>
    </clipPath>
  </defs>
  <g id="logo_landing" clip-path="url(#clip-logo_landing)">
    <g id="Group_3275" data-name="Group 3275" transform="translate(-830 -341)">
      <path id="Path_4682" data-name="Path 4682" d="M92.486,0V13.889a14,14,0,1,1-28,.111,14,14,0,0,1,14-14ZM73.457,14a5.03,5.03,0,1,1,8.584,3.554l2.221,2.221a1.242,1.242,0,0,0,1.875-.134,9.516,9.516,0,1,0-15.3,0,1.242,1.242,0,0,0,1.874.134l2.224-2.222A5.011,5.011,0,0,1,73.457,14" transform="translate(765.514 341)" fill="#5761b2" fill-rule="evenodd"/>
      <path id="Path_4701" data-name="Path 4701" d="M8.616-6.7a4.932,4.932,0,0,0-.444-2.448,1.647,1.647,0,0,0-1.524-.72q-.336,0-.7.036t-.7.084V0H1.68V-12.192q.456-.12,1.068-.252t1.3-.24q.684-.108,1.4-.168t1.416-.06a5.951,5.951,0,0,1,2.22.348,5.009,5.009,0,0,1,1.4.828,6.144,6.144,0,0,1,1.764-.864,6.178,6.178,0,0,1,1.836-.312,6.306,6.306,0,0,1,2.484.42A3.743,3.743,0,0,1,18.12-11.3a4.5,4.5,0,0,1,.792,1.824,11.771,11.771,0,0,1,.216,2.352V0H15.552V-6.7a4.932,4.932,0,0,0-.444-2.448,1.647,1.647,0,0,0-1.524-.72,3.221,3.221,0,0,0-.8.144,3.136,3.136,0,0,0-.852.36A5.45,5.45,0,0,1,12.144-8.2q.048.612.048,1.308V0H8.616Zm24.576-5.928q-1.08,3.648-2.256,6.84T28.368.408A14.022,14.022,0,0,1,27.36,2.244a5.646,5.646,0,0,1-1.1,1.248,3.886,3.886,0,0,1-1.356.72,6.13,6.13,0,0,1-1.764.228,7.2,7.2,0,0,1-1.548-.156,6.869,6.869,0,0,1-1.164-.348l.624-2.856a6.1,6.1,0,0,0,.984.264,5.545,5.545,0,0,0,.912.072A2,2,0,0,0,24.42.9,4.146,4.146,0,0,0,25.3-.528q-1.224-2.4-2.448-5.388a67.165,67.165,0,0,1-2.3-6.708h3.792q.24.936.564,2.028t.684,2.208q.36,1.116.732,2.172t.708,1.92q.312-.864.648-1.92t.66-2.172q.324-1.116.624-2.208t.54-2.028ZM35.112,0V-18.048l3.576-.576v6.048a7.412,7.412,0,0,1,.924-.228,5.8,5.8,0,0,1,1.092-.108,6.749,6.749,0,0,1,2.556.42A3.969,3.969,0,0,1,44.892-11.3a4.593,4.593,0,0,1,.864,1.824,10.146,10.146,0,0,1,.252,2.352V0H42.432V-6.7a4.932,4.932,0,0,0-.444-2.448,1.775,1.775,0,0,0-1.644-.72,4.587,4.587,0,0,0-.9.084q-.42.084-.756.18V0Zm18.96-2.5q.528,0,1.008-.024a7.013,7.013,0,0,0,.768-.072V-5.3q-.216-.048-.648-.1a7.216,7.216,0,0,0-.792-.048,7.088,7.088,0,0,0-.948.06,2.477,2.477,0,0,0-.78.228,1.338,1.338,0,0,0-.528.456,1.271,1.271,0,0,0-.192.72,1.227,1.227,0,0,0,.564,1.164A3.117,3.117,0,0,0,54.072-2.5ZM53.784-12.96a8.281,8.281,0,0,1,2.64.36,4.1,4.1,0,0,1,1.692,1.032,3.793,3.793,0,0,1,.9,1.632A8.05,8.05,0,0,1,59.28-7.8V-.36q-.768.168-2.136.4a20.525,20.525,0,0,1-3.312.228,10.5,10.5,0,0,1-2.22-.216A4.818,4.818,0,0,1,49.9-.66a3.24,3.24,0,0,1-1.1-1.284,4.432,4.432,0,0,1-.384-1.944,3.684,3.684,0,0,1,.444-1.872A3.417,3.417,0,0,1,50.04-6.984a5.368,5.368,0,0,1,1.7-.66,9.559,9.559,0,0,1,1.992-.2,11.309,11.309,0,0,1,1.236.06,5.5,5.5,0,0,1,.876.156v-.336A1.979,1.979,0,0,0,55.3-9.432a2.673,2.673,0,0,0-1.92-.552,12.226,12.226,0,0,0-1.8.132,7.722,7.722,0,0,0-1.536.372l-.456-2.88q.312-.1.78-.2t1.02-.192q.552-.084,1.164-.144T53.784-12.96ZM70.608-6.408q0-3.456-2.544-3.456a4.221,4.221,0,0,0-1.092.144,3.107,3.107,0,0,0-.876.36v6.5q.264.048.672.084t.888.036a2.569,2.569,0,0,0,2.208-1.008A4.381,4.381,0,0,0,70.608-6.408Zm3.648.1a7.979,7.979,0,0,1-.444,2.736,5.776,5.776,0,0,1-1.284,2.088A5.643,5.643,0,0,1,70.464-.156,7.754,7.754,0,0,1,67.68.312q-.648,0-1.356-.06T64.932.1q-.684-.1-1.308-.228t-1.1-.276v-17.64l3.576-.576v6.288a6.7,6.7,0,0,1,1.248-.408,6.409,6.409,0,0,1,1.392-.144,5.7,5.7,0,0,1,2.376.468,4.653,4.653,0,0,1,1.728,1.332A5.983,5.983,0,0,1,73.9-9.012,9.465,9.465,0,0,1,74.256-6.312ZM80.592,0H77.016V-12.624h3.576Zm.336-16.272a1.963,1.963,0,0,1-.636,1.548,2.187,2.187,0,0,1-1.5.564,2.187,2.187,0,0,1-1.5-.564,1.963,1.963,0,0,1-.636-1.548,1.963,1.963,0,0,1,.636-1.548,2.187,2.187,0,0,1,1.5-.564,2.187,2.187,0,0,1,1.5.564A1.963,1.963,0,0,1,80.928-16.272Zm2.9.5,3.576-.576v3.72h4.3v2.976h-4.3v4.44a3.532,3.532,0,0,0,.4,1.8,1.7,1.7,0,0,0,1.6.672,6.832,6.832,0,0,0,1.188-.108,6.123,6.123,0,0,0,1.116-.3l.5,2.784A10.174,10.174,0,0,1,90.768.1a8.391,8.391,0,0,1-1.944.192,6.4,6.4,0,0,1-2.424-.4,3.8,3.8,0,0,1-1.536-1.1,4.11,4.11,0,0,1-.8-1.716,10.13,10.13,0,0,1-.228-2.232ZM98.952-2.5q.528,0,1.008-.024a7.013,7.013,0,0,0,.768-.072V-5.3q-.216-.048-.648-.1a7.217,7.217,0,0,0-.792-.048,7.088,7.088,0,0,0-.948.06,2.477,2.477,0,0,0-.78.228,1.338,1.338,0,0,0-.528.456,1.271,1.271,0,0,0-.192.72A1.227,1.227,0,0,0,97.4-2.82,3.117,3.117,0,0,0,98.952-2.5ZM98.664-12.96a8.281,8.281,0,0,1,2.64.36A4.1,4.1,0,0,1,103-11.568a3.793,3.793,0,0,1,.9,1.632A8.05,8.05,0,0,1,104.16-7.8V-.36q-.768.168-2.136.4a20.525,20.525,0,0,1-3.312.228,10.5,10.5,0,0,1-2.22-.216A4.818,4.818,0,0,1,94.776-.66a3.24,3.24,0,0,1-1.1-1.284,4.432,4.432,0,0,1-.384-1.944,3.684,3.684,0,0,1,.444-1.872A3.417,3.417,0,0,1,94.92-6.984a5.369,5.369,0,0,1,1.7-.66,9.559,9.559,0,0,1,1.992-.2,11.309,11.309,0,0,1,1.236.06,5.5,5.5,0,0,1,.876.156v-.336a1.979,1.979,0,0,0-.552-1.464,2.673,2.673,0,0,0-1.92-.552,12.225,12.225,0,0,0-1.8.132,7.722,7.722,0,0,0-1.536.372l-.456-2.88q.312-.1.78-.2t1.02-.192q.552-.084,1.164-.144T98.664-12.96Zm8.616-2.808,3.576-.576v3.72h4.3v2.976h-4.3v4.44a3.532,3.532,0,0,0,.4,1.8,1.7,1.7,0,0,0,1.6.672,6.832,6.832,0,0,0,1.188-.108,6.123,6.123,0,0,0,1.116-.3l.5,2.784a10.174,10.174,0,0,1-1.44.456,8.391,8.391,0,0,1-1.944.192,6.4,6.4,0,0,1-2.424-.4,3.8,3.8,0,0,1-1.536-1.1,4.11,4.11,0,0,1-.8-1.716,10.13,10.13,0,0,1-.228-2.232Z" transform="translate(866 363)" fill="#5761b2"/>
    </g>
  </g>
</svg>
